<?xml version="1.0" standalone="no"?><!DOCTYPE svg PUBLIC "-//W3C//DTD SVG 1.1//EN" "http://www.w3.org/Graphics/SVG/1.1/DTD/svg11.dtd"><svg t="1564485935499" class="icon" viewBox="0 0 1024 1024" version="1.1" xmlns="http://www.w3.org/2000/svg" p-id="3297" xmlns:xlink="http://www.w3.org/1999/xlink" width="48" height="48"><defs><style type="text/css"></style></defs><path d="M934.382936 824.346821c30.593785 30.650067 30.593785 80.31521-0.056282 110.965278-15.268752 15.325034-35.361369 22.989597-55.452963 22.989597-20.094664 0-40.187281-7.664563-55.512315-22.989597L510.214331 622.154819 197.066261 935.312098c-15.325034 15.325034-35.417651 22.989597-55.512315 22.989597-20.092617 0-40.184211-7.664563-55.452963-22.989597-30.650067-30.650067-30.650067-80.31521-0.056282-110.965278l313.177745-313.190025L86.044702 197.966771c-30.593785-30.650067-30.593785-80.31521 0.056282-110.965278 30.537504-30.652114 80.31521-30.652114 110.965278 0L510.214331 400.158772 823.361377 87.001493c30.650067-30.652114 80.427774-30.652114 110.965278 0 30.650067 30.650067 30.650067 80.31521 0.056282 110.965278L621.205191 511.156796 934.382936 824.346821z" p-id="3298" fill="#FFFFFF"></path></svg>