<?xml version="1.0" encoding="UTF-8"?>
<svg width="47px" height="52px" viewBox="0 0 47 52" version="1.1" xmlns="http://www.w3.org/2000/svg" xmlns:xlink="http://www.w3.org/1999/xlink">
    <!-- Generator: Sketch 52.5 (67469) - http://www.bohemiancoding.com/sketch -->
    <title>审批 (1)</title>
    <desc>Created with Sketch.</desc>
    <defs>
        <polygon id="path-1" points="0 0 47 0 47 52 0 52"></polygon>
    </defs>
    <g id="1.0-" stroke="none" stroke-width="1" fill="none" fill-rule="evenodd">
        <g id="切图" transform="translate(-70.000000, -52.000000)">
            <g id="审批-(1)" transform="translate(70.000000, 52.000000)">
                <mask id="mask-2" fill="white">
                    <use xlink:href="#path-1"></use>
                </mask>
                <g id="Clip-2"></g>
                <path d="M18.2777899,31.1998114 L18.2777899,24.9159306 C13.6668697,22.9068096 10.4444202,18.3200358 10.4444202,12.9999093 C10.4444202,5.82024858 16.3041479,0 23.5000364,0 C30.7103502,0 36.5555798,5.83533784 36.5555798,12.9999093 C36.5555798,18.3285235 33.3280304,22.9081879 28.7222101,24.9153503 L28.7222101,31.1998114 L40.4646878,31.1998114 C44.0741431,31.1998114 47,34.085198 47,37.7002376 L47,44.2000109 L0,44.2000109 L0,37.6999474 C0,34.1100808 2.94006359,31.1998114 6.53502078,31.1998114 L18.2777899,31.1998114 Z M2.61112325,52 L44.3885853,52 L44.3885853,46.8000073 L2.61112325,46.8000073 L2.61112325,52 Z" id="Fill-1" fill="#6096F8" mask="url(#mask-2)"></path>
            </g>
        </g>
    </g>
</svg>