<?xml version="1.0" encoding="UTF-8"?>
<svg width="48px" height="48px" viewBox="0 0 48 48" version="1.1" xmlns="http://www.w3.org/2000/svg" xmlns:xlink="http://www.w3.org/1999/xlink">
    <!-- Generator: Sketch 52.5 (67469) - http://www.bohemiancoding.com/sketch -->
    <title>我发起的 2</title>
    <desc>Created with Sketch.</desc>
    <g id="1.0-" stroke="none" stroke-width="1" fill="none" fill-rule="evenodd">
        <g id="切图" transform="translate(-144.000000, -52.000000)" fill="#6096F8">
            <g id="我发起的-2" transform="translate(144.000000, 52.000000)">
                <path d="M47.1273825,0.325119728 C46.2544842,-0.108373243 45.3818667,-0.108373243 44.9454877,0.325119728 L1.30906665,21.9954438 C0.436449183,21.9954438 0,22.8624297 0,23.7290669 C0,24.5960528 0.436449183,25.4627598 0.872898367,25.4627598 L11.3455018,31.9638988 C12.2183299,32.3973918 13.0909474,32.3973918 13.9635649,31.5306849 L37.0909474,10.7270678 L37.9635649,11.1602817 L17.0180771,33.264308 C16.5819088,33.697522 16.5819088,34.1310149 16.5819088,34.5642289 L16.5819088,44.09947 C16.5819088,44.966177 17.0180771,45.8331629 17.8909755,46.2663071 C18.7635227,46.6998001 19.6364211,46.2663071 20.0728703,45.8331629 L25.3089964,40.632154 L35.7818807,47.566786 C36.218049,48 36.6544982,48 37.0909474,48 L37.9635649,48 C38.836393,47.566786 39.2728422,47.1332931 39.2728422,46.2663071 L48,2.92551955 C48,1.62531964 48,0.758612698 47.1273825,0.325119728 Z" id="我发起的"></path>
            </g>
        </g>
    </g>
</svg>