<?xml version="1.0" encoding="UTF-8"?>
<svg width="110px" height="110px" viewBox="0 0 110 110" version="1.1" xmlns="http://www.w3.org/2000/svg" xmlns:xlink="http://www.w3.org/1999/xlink">
    <!-- Generator: Sketch 52.5 (67469) - http://www.bohemiancoding.com/sketch -->
    <title>分组</title>
    <desc>Created with Sketch.</desc>
    <g id="1.0-" stroke="none" stroke-width="1" fill="none" fill-rule="evenodd">
        <g id="信息查询" transform="translate(-41.000000, -215.000000)">
            <g id="Group-13" transform="translate(-1.000000, 0.000000)">
                <g id="Group-12">
                    <g id="导航-/iOS/常规">
                        <g id="Group-2" transform="translate(0.000000, 204.000000)">
                            <g id="分组" transform="translate(42.000000, 11.000000)">
                                <rect id="矩形" fill="#FFFFFF" x="0" y="0" width="110" height="110"></rect>
                                <g id="dazongyuanliao" transform="translate(7.000000, 14.000000)" fill="#58A5FF">
                                    <path d="M22.4136366,55.959298 C30.6476683,55.959298 37.325927,62.4949125 37.325927,70.5581395 L63.4230553,70.5581395 C63.4230553,62.4949125 70.0975942,55.959298 78.335233,55.959298 C83.6107936,55.959298 88.2231048,58.6577155 90.875426,62.7053969 L97,26.6976744 L0,26.6976744 L9.40339766,63.5515305 C11.9429981,59.0469899 16.7846962,55.959298 22.4136366,55.959298 Z" id="路径"></path>
                                    <path d="M33.6135783,71.0121053 C33.6135783,64.9436709 28.5967121,60.0242105 22.4030404,60.0242105 C16.2130885,60.0242105 11.1925025,64.9436709 11.1925026,71.0121053 C11.1925026,77.0787679 16.2130885,82.0000001 22.4030404,82 C28.5967121,82 33.6135783,77.0787679 33.6135783,71.0121053 Z M89.5386678,71.0121053 C89.5386678,64.9436709 84.5183073,60.0242105 78.3246355,60.0242105 C72.1344582,60.0242105 67.1139849,64.9436709 67.1139849,71.0121053 C67.1139849,77.0787679 72.1344581,82.0000001 78.3246355,82 C84.5181945,82 89.5386678,77.0787679 89.5386678,71.0121053 Z M86.0527759,16.0710812 C87.3412878,6.41808256 78.8818146,5.07598874 78.8818146,5.07598874 C76.8929682,3.90553231 64.5396665,5.07598874 64.5396665,5.07598874 C56.3216413,-6.34498593 50.1976311,5.07598874 50.1976311,5.07598874 L39.4407946,5.07598874 C32.6269329,1.71887178 35.8551449,12.4061242 35.8551448,12.4061242 L28.6840708,12.4061242 C23.4073831,8.80727524 17.9274596,16.0711919 17.9274596,16.0711919 C16.5725552,10.0259009 14.3419226,16.0711919 14.3419227,16.0711919 C4.42587079,14.7128203 0,23.401106 0,23.401106 L96.8091616,23.401106 C98.6896833,11.5326559 86.0527759,16.0710813 86.0527759,16.0710812 Z" id="形状" fill-rule="nonzero"></path>
                                </g>
                            </g>
                        </g>
                    </g>
                </g>
            </g>
        </g>
    </g>
</svg>