<?xml version="1.0" encoding="UTF-8"?>
<svg width="113px" height="113px" viewBox="0 0 113 113" version="1.1" xmlns="http://www.w3.org/2000/svg" xmlns:xlink="http://www.w3.org/1999/xlink">
    <!-- Generator: Sketch 52.5 (67469) - http://www.bohemiancoding.com/sketch -->
    <title>高处安全</title>
    <desc>Created with Sketch.</desc>
    <g id="1.0-" stroke="none" stroke-width="1" fill="none" fill-rule="evenodd">
        <g id="切图" transform="translate(-927.000000, -22.000000)">
            <g id="高处安全" transform="translate(927.000000, 22.000000)">
                <rect id="Rectangle-16-Copy-4" fill="#EDF6FC" x="0" y="0" width="113" height="113" rx="30"></rect>
                <g id="gaochuzuoye" transform="translate(33.000000, 26.000000)" fill="#4DA8E5" fill-rule="nonzero">
                    <path d="M45.7619048,0.0478431903 L38.1761905,0.0478431903 C36.9619048,0.0478431903 35.9857143,1.02384445 35.9857143,2.23906166 L35.9857143,8.28165751 L11.9142857,8.28165751 L11.9142857,2.19121847 C11.9142857,0.971216945 10.9428571,0 9.72380953,0 L2.19047618,0 C0.976190491,0 0,0.976001257 0,2.19121847 L0,59.8087815 C0,61.0287831 0.971428594,62 2.19047618,62 L9.77619047,62 C10.9904762,62 11.9666667,61.0239987 11.9666667,59.8087815 L11.9666667,54.7374026 L36.0380952,54.7374026 L36.0380952,59.8087815 C36.0380952,61.0287831 37.0095238,62 38.2285714,62 L45.8095238,62 C47.0238095,62 48,61.0239987 48,59.8087815 L48,2.19121847 C47.952381,1.02384445 46.9809524,0.0478431903 45.7619048,0.0478431903 Z M36.0380952,14.5251948 L36.0380952,28.9068601 L11.9142857,28.9068601 L11.9142857,14.5251948 L36.0380952,14.5251948 Z M11.9142857,48.4555907 L11.9142857,35.1456131 L35.9857143,35.1456131 L35.9857143,48.4029632 L11.9142857,48.4029632 L11.9142857,48.4555907 Z" id="形状"></path>
                </g>
            </g>
        </g>
    </g>
</svg>