<?xml version="1.0" encoding="UTF-8"?>
<svg width="113px" height="113px" viewBox="0 0 113 113" version="1.1" xmlns="http://www.w3.org/2000/svg" xmlns:xlink="http://www.w3.org/1999/xlink">
    <!-- Generator: Sketch 52.5 (67469) - http://www.bohemiancoding.com/sketch -->
    <title>临时用电</title>
    <desc>Created with Sketch.</desc>
    <g id="1.0-" stroke="none" stroke-width="1" fill="none" fill-rule="evenodd">
        <g id="切图" transform="translate(-1198.000000, -19.000000)">
            <g id="临时用电" transform="translate(1198.000000, 19.000000)">
                <rect id="Rectangle-16-Copy-8" fill="#E7F8F4" x="0" y="0" width="113" height="113" rx="30"></rect>
                <g id="yongdian-" transform="translate(25.000000, 25.000000)" fill="#17C195" fill-rule="nonzero">
                    <path d="M53.778353,33.9325512 L48.9731814,29.1272325 C48.7281318,28.8821754 48.7281318,28.4839576 48.9731814,28.2389005 L50.7631432,26.4488839 L36.5502655,12.2355714 L34.7603037,14.0255879 C34.5152541,14.270645 34.1170485,14.270645 33.8719989,14.0255879 L29.0668273,9.22026929 C28.8217776,8.97521217 28.8217776,8.57699436 29.0668273,8.33193725 L30.856789,6.54192071 L27.4111715,3.09619778 C27.1598386,2.84485715 26.7474955,2.84485715 26.4961625,3.09619778 L14.2884505,15.3042834 C14.0371175,15.555624 13.8313387,15.7621946 13.8313387,15.7621946 C13.8313387,15.7621946 13.7849992,15.8085355 13.7284493,15.8643017 L13.6773973,15.9153553 C5.68736606,23.905631 4.6459052,36.2158237 10.5420189,45.3599099 C10.5726501,45.3363468 10.6056375,45.3159253 10.638625,45.2986457 C10.6723978,45.281366 10.7069561,45.2672281 10.7430852,45.2570174 C10.7784289,45.2460212 10.8153434,45.2389523 10.852258,45.2342396 C11.0426164,45.21171 11.2327951,45.2777101 11.3682759,45.4133198 L15.5136985,49.5588693 L17.5864099,51.6316441 C17.6288223,51.6740578 17.6633806,51.7203987 17.6916555,51.7706669 C17.7285701,51.8374292 17.7521325,51.9089042 17.7631283,51.9819501 C17.7686263,52.0188657 17.7709825,52.0557814 17.7701971,52.092697 C17.7671542,52.2251643 17.7217347,52.3531687 17.6406035,52.4579264 C26.78441,58.3542204 39.0942261,57.3127277 47.0850427,49.3216666 L47.1360947,49.270613 C47.1918592,49.2140614 47.2381987,49.1677205 47.2381987,49.1677205 C47.2381987,49.1677205 47.4439776,48.9619353 47.6960959,48.7105947 L59.903808,36.5025091 C60.1551409,36.2511685 60.1551409,35.8388127 59.903808,35.5874721 L56.4581905,32.1417492 L54.6682287,33.9317657 C54.4216083,34.1776083 54.0241881,34.1776083 53.778353,33.9325512 Z M42.5005728,28.3944175 L32.4394011,31.6327844 C32.1008871,31.7419605 31.962654,32.0867684 32.1330891,32.3993733 L35.5669254,38.6978124 C35.7373605,39.0104173 35.588917,39.2232714 35.2370509,39.170647 L17.4858767,36.5245014 C17.1340106,36.471877 17.1230148,36.3407086 17.4623142,36.2315325 L26.6752373,33.2829927 C27.0137513,33.1746021 27.1590532,32.8266524 26.9972576,32.5093349 L24.3747555,27.369419 C24.2129599,27.0521015 24.3708284,26.8148987 24.7258362,26.8408182 L42.470727,28.1485749 C42.8265202,28.1744945 42.8398723,28.2852414 42.5005728,28.3944175 Z" id="形状"></path>
                    <path d="M29.0491598,9.42372986 L33.8183202,14.1928902 C34.0615333,14.4361033 34.4567547,14.4361033 34.6999678,14.1928902 L36.4765151,12.4163429 L43.0604197,5.83321785 C43.3036329,5.5900047 43.3036329,5.19478334 43.0604197,4.95157019 L38.2912594,0.182409859 C38.0480462,-0.0608032864 37.6528249,-0.0608032864 37.4096117,0.182409859 L30.8257071,6.76631443 L29.0491598,8.54286174 C28.8059467,8.78529535 28.8059467,9.18051672 29.0491598,9.42372986 Z M62.8175901,24.7087406 L58.0484298,19.9395803 C57.8052167,19.6963671 57.4099953,19.6963671 57.1667822,19.9395803 L50.5836571,26.5227053 L48.8071098,28.2992526 C48.5638967,28.5424658 48.5638967,28.9376871 48.8071098,29.1809003 L53.5762701,33.9500606 C53.8194833,34.1932738 54.2147046,34.1932738 54.4579178,33.9500606 L56.2344651,32.1735133 L62.8175901,25.5903883 C63.0608033,25.3471751 63.0608033,24.9519538 62.8175901,24.7087406 Z M17.7584573,51.6547304 C17.730203,51.6041181 17.6950473,51.5576811 17.6540003,51.5167537 L15.5968225,49.4595758 L11.4824668,45.3452201 C11.3752475,45.2374396 11.2320106,45.1730385 11.0802297,45.1643693 C11.0435762,45.1619017 11.0067707,45.1629458 10.970316,45.1674874 C10.9336781,45.1713851 10.8978198,45.1791804 10.8619614,45.1900938 C10.8268826,45.2010072 10.7918038,45.2142592 10.758284,45.2314088 C10.7247643,45.2485585 10.6928036,45.2688263 10.6624019,45.2922121 C10.6405751,45.3085822 10.6203074,45.3257319 10.6000396,45.3459997 L0.182409859,55.7644089 C-0.0608032864,56.0076221 -0.0608032864,56.4028434 0.182409859,56.6460566 L6.35394343,62.8175901 C6.59715657,63.0608033 6.99237794,63.0608033 7.23559108,62.8175901 L17.6540003,52.3991809 C17.7664769,52.2861381 17.8316975,52.134514 17.8364102,51.9751169 C17.8371897,51.9384791 17.8348511,51.9018412 17.8293944,51.8652033 C17.818481,51.7919275 17.7950952,51.7202108 17.7584573,51.6547304 Z" id="形状"></path>
                </g>
            </g>
        </g>
    </g>
</svg>