<?xml version="1.0" encoding="UTF-8"?>
<svg width="110px" height="110px" viewBox="0 0 110 110" version="1.1" xmlns="http://www.w3.org/2000/svg" xmlns:xlink="http://www.w3.org/1999/xlink">
    <!-- Generator: Sketch 52.5 (67469) - http://www.bohemiancoding.com/sketch -->
    <title>分组 6</title>
    <desc>Created with Sketch.</desc>
    <g id="1.0-" stroke="none" stroke-width="1" fill="none" fill-rule="evenodd">
        <g id="数据监控" transform="translate(-414.000000, -214.000000)">
            <g id="Group-13" transform="translate(-1.000000, 0.000000)">
                <g id="Group-12">
                    <g id="导航-/iOS/常规">
                        <g id="Group-2" transform="translate(0.000000, 204.000000)">
                            <g id="分组-6" transform="translate(415.000000, 10.000000)">
                                <rect id="矩形" fill="#FFFFFF" x="0" y="0" width="110" height="110"></rect>
                                <g id="qiapian" transform="translate(7.000000, 12.000000)" fill="#58A5FF">
                                    <path d="M68.6,10.2981131 C67.6319983,10.0741378 66.6420678,9.96161933 65.6490742,9.96270206 L22.9771759,9.96270206 C19.4949325,9.96270206 16.1553127,11.3622205 13.6929948,13.8533793 C11.2306769,16.344538 9.8473611,19.7232744 9.84736112,23.2463049 L9.84736112,59.7762124 C9.84736112,60.8023707 9.96224703,61.8019618 10.178889,62.7617021 C4.22057001,61.3687892 0.00039228254,56.0004557 0,49.8135103 L0,13.2836028 C-2.55047123e-08,9.76057231 1.38331576,6.38183596 3.84563368,3.89067719 C6.3079516,1.39951842 9.64757139,6.91301326e-16 13.1298148,0 L55.8017131,0 C62.0383751,0 67.2574765,4.40019344 68.6,10.2981131 Z" id="路径"></path>
                                    <path d="M81.7361702,23.4342832 C80.7681684,23.2103079 79.778238,23.0977895 78.7852443,23.0988723 L36.1133462,23.0988723 C32.6311028,23.0988723 29.291483,24.4983907 26.8291651,26.9895494 C24.3668471,29.4807082 22.9835313,32.8594445 22.9835313,36.382475 L22.9835313,72.9123827 C22.9835313,73.938541 23.0984172,74.9381321 23.3150592,75.8978723 C17.3567403,74.5049594 13.1365625,69.1366259 13.1361702,62.9496806 L13.1361702,26.419773 C13.1361702,22.8967424 14.519486,19.5180061 16.981804,17.0268473 C19.4441219,14.5356886 22.7837417,13.1361702 26.2659851,13.1361702 L68.9378832,13.1361702 C75.1745452,13.1361702 80.3936466,17.5363637 81.7361702,23.4342832 Z" id="路径"></path>
                                    <path d="M39.3390071,26.2723404 L81.8056738,26.2723404 C89.0221945,26.2723404 94.8723404,32.1879975 94.8723404,39.4853303 L94.8723404,75.8210527 C94.8723404,83.1183855 89.0221945,89.0340426 81.8056738,89.0340426 L39.3390071,89.0340426 C32.1224863,89.0340426 26.2723404,83.1183855 26.2723404,75.8210527 L26.2723404,39.4853303 C26.2723404,32.1879975 32.1224863,26.2723404 39.3390071,26.2723404 Z M42.6056738,54.349944 C40.8015436,54.349944 39.3390071,55.8288583 39.3390071,57.6531915 C39.3390071,59.4775247 40.8015436,60.956439 42.6056738,60.956439 L68.7390071,60.956439 C70.5431373,60.956439 72.0056737,59.4775247 72.0056737,57.6531915 C72.0056737,55.8288583 70.5431373,54.349944 68.7390071,54.349944 L42.6056738,54.349944 Z M42.6056738,41.1369541 C40.8015437,41.1369542 39.3390072,42.6158684 39.3390072,44.4402016 C39.3390072,46.2645348 40.8015437,47.743449 42.6056738,47.7434491 L55.6723404,47.7434491 C57.4764706,47.743449 58.939007,46.2645348 58.939007,44.4402016 C58.939007,42.6158684 57.4764706,41.1369542 55.6723404,41.1369541 L42.6056738,41.1369541 Z M78.5390071,41.1369541 C77.3719394,41.136954 76.2935244,41.7665495 75.7099906,42.7885778 C75.1264568,43.8106062 75.1264568,45.069797 75.7099906,46.0918254 C76.2935244,47.1138537 77.3719394,47.7434491 78.5390071,47.7434491 C80.3431372,47.743449 81.8056736,46.2645348 81.8056736,44.4402016 C81.8056736,42.6158684 80.3431372,41.1369542 78.5390071,41.1369541 Z M42.6056738,67.562934 C40.8015436,67.562934 39.3390072,69.0418482 39.3390072,70.8661814 C39.3390072,72.6905146 40.8015436,74.1694289 42.6056738,74.1694289 L78.5390071,74.1694289 C80.3431372,74.1694289 81.8056737,72.6905146 81.8056737,70.8661814 C81.8056737,69.0418482 80.3431372,67.562934 78.5390071,67.562934 L42.6056738,67.562934 Z" id="形状" fill-rule="nonzero"></path>
                                </g>
                            </g>
                        </g>
                    </g>
                </g>
            </g>
        </g>
    </g>
</svg>