<?xml version="1.0" encoding="UTF-8"?>
<svg width="111px" height="111px" viewBox="0 0 111 111" version="1.1" xmlns="http://www.w3.org/2000/svg" xmlns:xlink="http://www.w3.org/1999/xlink">
    <!-- Generator: Sketch 52.5 (67469) - http://www.bohemiancoding.com/sketch -->
    <title>分组 7</title>
    <desc>Created with Sketch.</desc>
    <g id="1.0-" stroke="none" stroke-width="1" fill="none" fill-rule="evenodd">
        <g id="数据监控" transform="translate(-412.000000, -2175.000000)">
            <g id="Group-Copy" transform="translate(375.500000, 2225.000000) rotate(-90.000000) translate(-375.500000, -2225.000000) translate(228.000000, 1850.000000)">
                <g id="分组-7" transform="translate(87.000000, 412.000000)">
                    <rect id="Rectangle-16-Copy-7" fill="#FFFFFF" transform="translate(55.000000, 55.000000) rotate(-270.000000) translate(-55.000000, -55.000000) " x="0" y="0" width="110" height="110"></rect>
                    <g id="cailiao" transform="translate(55.000000, 55.000000) rotate(-270.000000) translate(-55.000000, -55.000000) translate(5.000000, 5.000000)" fill="#58A5FF" fill-rule="nonzero">
                        <path d="M98.3065485,81.7521619 C100.861763,86.4520816 97.6703809,92.333133 92.566981,92.333133 L62.9377377,92.333133 C60.9237926,92.333133 59.4440879,90.4489468 59.6549721,88.3186914 C59.945966,85.4597896 59.2702839,82.5858471 57.735925,80.156228 C56.9927116,78.9744635 56.9927116,77.4711924 57.735925,76.2894279 C58.9871719,74.3208752 59.7182374,71.9550966 59.7182374,69.4065237 C59.7260917,66.9702628 59.0383724,64.582392 57.735925,62.5236196 C56.9941084,61.3323781 56.9995717,59.8215717 57.749984,58.6357279 C59.1900232,56.3438584 59.8702043,53.655935 59.6936342,50.9548569 C59.2929541,44.3812968 53.8486245,39.4247621 47.6521411,39.4247621 L32.2329844,39.4247621 C29.6812845,39.4247621 28.0855933,36.4895093 29.3614432,34.1377918 L45.1672211,5.01375665 C47.7224359,0.313836923 54.1052005,0.313836923 56.6569004,5.01375665 L98.3065485,81.7521619 Z M45.3886496,46.9087779 C47.9333201,46.9193237 49.9929567,49.6506907 49.9999862,53.0253525 C49.9929567,56.3964991 47.9333201,59.1278661 45.3886496,59.138412 L5.40498734,59.138412 C2.86031688,59.1278661 0.800680284,56.3964991 0.793650794,53.0218373 C0.800680284,49.6506907 2.86031688,46.9193237 5.40498734,46.9087779 L45.3886496,46.9087779 Z M45.3886496,67.2903295 C47.9333201,67.3008753 49.9929567,70.0322423 49.9999862,73.4069042 C49.9929567,76.7780508 47.9333201,79.5094178 45.3886496,79.5199636 L5.40498734,79.5199636 C2.86031688,79.5094178 0.800680284,76.7780508 0.793650794,73.403389 C0.800680284,70.0322424 2.86031688,67.3008754 5.40498734,67.2903295 L45.3886496,67.2903295 Z M45.3886496,87.6718812 C47.9333201,87.682427 49.9929567,90.413794 49.9999862,93.7884559 C49.9929567,97.1596025 47.9333201,99.8909695 45.3886496,99.9015153 L5.40498734,99.9015153 C2.86031688,99.8909695 0.800680284,97.1596025 0.793650794,93.7849407 C0.800680284,90.4137941 2.86031688,87.6824271 5.40498734,87.6718812 L45.3886496,87.6718812 Z" id="形状"></path>
                    </g>
                </g>
            </g>
        </g>
    </g>
</svg>