<?xml version="1.0" encoding="UTF-8"?>
<svg width="97px" height="101px" viewBox="0 0 97 101" version="1.1" xmlns="http://www.w3.org/2000/svg" xmlns:xlink="http://www.w3.org/1999/xlink">
    <!-- Generator: Sketch 52.5 (67469) - http://www.bohemiancoding.com/sketch -->
    <title>分组</title>
    <desc>Created with Sketch.</desc>
    <g id="1.0-" stroke="none" stroke-width="1" fill="none" fill-rule="evenodd">
        <g id="数据监控" transform="translate(-48.000000, -409.000000)" fill="#647CFF" fill-rule="nonzero">
            <g id="Group-13" transform="translate(-1.000000, 0.000000)">
                <g id="Group-12">
                    <g id="导航-/iOS/常规">
                        <g id="Group-2" transform="translate(0.000000, 204.000000)">
                            <g id="分组" transform="translate(49.000000, 205.000000)">
                                <g id="huaxuepeifang">
                                    <path d="M20.494101,0 L38.0604734,0 C42.9112932,0 46.8436596,3.95166287 46.8436596,8.82628607 C46.8436596,13.7009093 42.9112932,17.6525721 38.0604734,17.6525721 L20.494101,17.6525721 C15.6432812,17.6525721 11.7109148,13.7009093 11.7109148,8.82628607 C11.7109148,3.95166287 15.6432812,0 20.494101,0 Z M58.5545744,41.1893348 L40.988202,41.1893348 L52.699117,64.7260976 L52.699117,88.2628603 C52.699117,91.246145 53.8057985,93.9705252 55.6268457,96.0476445 C53.405906,98.5836673 50.2054017,100.03525 46.8436595,100.031242 L11.710915,100.031242 C8.60498719,100.031242 5.62627013,98.7913623 3.43004754,96.5843626 C1.23382495,94.377363 -3.48810256e-08,91.3840291 0,88.2628603 L35.1327446,88.2628603 L35.1327446,41.1893348 L0,41.1893348 C0,38.068166 1.233825,35.0748321 3.43004759,32.8678325 C5.62627017,30.6608329 8.60498722,29.4209534 11.710915,29.4209535 L46.8436595,29.4209535 C49.9495872,29.4209534 52.9283043,30.6608329 55.1245268,32.8678325 C57.3207494,35.0748321 58.5545744,38.068166 58.5545744,41.1893348 Z M0,47.0735255 L29.2772872,47.0735255 L29.2772872,82.3786696 L0,82.3786696 L0,47.0735255 Z M87.8318615,64.7260976 L87.8318615,88.2628603 C87.8318615,91.3840291 86.5980366,94.3773629 84.401814,96.5843626 C82.2055915,98.7913622 79.2268744,100.031242 76.1209467,100.031242 L70.2654893,100.031242 C67.1595615,100.031242 64.1808445,98.7913622 61.9846219,96.5843626 C59.7883994,94.3773629 58.5545744,91.3840291 58.5545744,88.2628603 L58.5545744,64.7260976 L49.8767864,51.6455417 C49.2790094,50.742832 49.223791,49.582878 49.7330893,48.6269485 C50.2423876,47.671019 51.2336373,47.0740856 52.3126568,47.0735255 L94.0737791,47.0735255 C95.1527986,47.0740856 96.1440483,47.671019 96.6533466,48.6269485 C97.162645,49.582878 97.1074265,50.742832 96.5096495,51.6455417 L87.8318615,64.7260976 Z" id="形状"></path>
                                </g>
                            </g>
                        </g>
                    </g>
                </g>
            </g>
        </g>
    </g>
</svg>