<?xml version="1.0" encoding="UTF-8"?>
<svg width="111px" height="111px" viewBox="0 0 111 111" version="1.1" xmlns="http://www.w3.org/2000/svg" xmlns:xlink="http://www.w3.org/1999/xlink">
    <!-- Generator: Sketch 52.5 (67469) - http://www.bohemiancoding.com/sketch -->
    <title>分组</title>
    <desc>Created with Sketch.</desc>
    <g id="1.0-" stroke="none" stroke-width="1" fill="none" fill-rule="evenodd">
        <g id="数据监控" transform="translate(-40.000000, -2174.000000)">
            <g id="Group-Copy" transform="translate(375.500000, 2225.000000) rotate(-90.000000) translate(-375.500000, -2225.000000) translate(228.000000, 1850.000000)">
                <g id="分组" transform="translate(143.000000, 95.000000) rotate(-270.000000) translate(-143.000000, -95.000000) translate(88.000000, 40.000000)">
                    <rect id="Rectangle-16-Copy-5" fill="#FFFFFF" x="0" y="0" width="110" height="110"></rect>
                    <g id="chaiyou" transform="translate(20.000000, 5.000000)" fill-rule="nonzero">
                        <path d="M1.97969234,99.9477496 L69.9501322,99.9477496 L69.9501322,52.8872998 L26.1667868,23.424962 C25.4287065,22.9288055 24.9882629,22.113311 24.9879836,21.2423724 L24.9879836,14.0873381 L14.8556837,14.0873381 L14.8556837,21.6514113 C14.8556837,23.1187072 13.6271329,24.3091154 12.1119923,24.3091153 L1.97861094,24.3091153 L1.97861094,99.9477496 L1.97969234,99.9477496 Z" id="形状" fill="#FC942C"></path>
                        <path d="M28.072358,44.1522872 C26.050024,47.7744438 24.1005298,51.4350798 22.2250012,55.1320812 C15.2712137,68.8948497 14.233399,74.0611328 14.233399,75.9157497 C14.2226931,79.4998912 15.6822512,82.9383647 18.2849505,85.4605234 C20.8767461,87.9996948 24.3971357,89.4217239 28.0648532,89.4110254 L28.0712859,89.4110254 C35.6994385,89.4078784 41.9059563,83.3530995 41.9070284,75.9147008 C41.9070284,74.0621818 40.8692137,68.8969477 33.9175706,55.1331303 C32.0427536,51.4357979 30.0939744,47.7748123 28.072358,44.1522872 Z" id="形状" fill="#FFFFFF"></path>
                        <path d="M5.40810809,8.8043185 L34.9416785,8.8043185 L34.9416785,5.23076922 L5.40919859,5.23076922 L5.40919859,8.8043185 L5.40810809,8.8043185 Z M37.43798,14.0350877 L2.91180654,14.0350877 C1.30649593,14.0350877 0,12.7719298 0,11.2183536 L0,2.81781375 C0,1.26315787 1.30649593,0 2.91180654,0 L37.4390707,0 C39.0443812,0 40.3508772,1.26315787 40.3508772,2.81673419 L40.3508772,11.2183536 C40.3508772,12.7719298 39.0443812,14.0350877 37.4390707,14.0350877 L37.43798,14.0350877 Z" id="形状" fill="#FC942C"></path>
                    </g>
                </g>
            </g>
        </g>
    </g>
</svg>