<?xml version="1.0" encoding="UTF-8"?>
<svg width="113px" height="113px" viewBox="0 0 113 113" version="1.1" xmlns="http://www.w3.org/2000/svg" xmlns:xlink="http://www.w3.org/1999/xlink">
    <!-- Generator: Sketch 52.5 (67469) - http://www.bohemiancoding.com/sketch -->
    <title>动火安全</title>
    <desc>Created with Sketch.</desc>
    <g id="1.0-" stroke="none" stroke-width="1" fill="none" fill-rule="evenodd">
        <g id="切图" transform="translate(-494.000000, -22.000000)">
            <g id="动火安全" transform="translate(494.000000, 22.000000)">
                <rect id="Rectangle-16-Copy-5" fill="#EE745F" opacity="0.1" x="0" y="0" width="113" height="113" rx="30"></rect>
                <g id="签到" transform="translate(13.000000, 32.000000)" fill="#F36C52">
                    <g id="donghuoshouxianzuoye">
                        <path d="M22,10.5 C22,16.2989899 26.4771525,21 32,21 C37.5228475,21 42,16.2989899 42,10.5 C42,4.70101013 37.5228475,0 32,0 C26.4771525,0 22,4.70101013 22,10.5 Z" id="路径"></path>
                        <path d="M82.6009575,33.1281818 L73.131832,33.1281818 L66.3468681,22.7892964 C66.3468681,22.7892964 62.0223856,21.8223503 59.7110243,29.4835387 C59.0399839,31.4918114 65.0047873,40.5662288 65.8249478,41.3100335 C66.197748,41.6819359 66.9433485,41.8306968 67.838069,41.9050773 C68.0617491,41.9794578 68.3599893,41.9794578 68.5836694,41.9794578 L82.6009575,41.9794578 C84.9868788,41.9794578 87,40.0455655 87,37.59101 L87,37.3678686 C87,35.062074 84.9868788,33.1281818 82.6009575,33.1281818 Z M60.1583846,16.6157173 C60.1583846,16.6157173 57.3251029,11.4090844 46.961257,13.4917376 C46.4393367,13.566118 45.9174164,13.6404985 45.3954961,13.8636399 C44.5007756,14.2355423 43.6806151,14.7562056 43.0095747,15.5743907 L28.3212463,33.2769427 C26.3081251,35.7314982 26.6063653,39.4505218 29.1414067,41.4587945 L29.4396469,41.6819359 C31.9001283,43.6902086 35.6281305,43.3926867 37.6412516,40.8637507 L48.0796576,28.2190707 L54.4918213,28.2190707 L60.1583846,16.6157173 Z M59.0399839,34.3182693 C59.0399839,34.3182693 55.684782,37.9629123 54.5663813,39.8224241 C53.4479807,41.6819359 54.5663813,41.384414 54.5663813,41.384414 L61.5750254,41.384414 C59.4127841,40.0455655 59.0399839,34.3182693 59.0399839,34.3182693 Z" id="形状" fill-rule="nonzero"></path>
                        <path d="M3.69930054,28.5206186 C4.58657148,29.9407216 4.88232846,31.435567 4.88232846,33.3041237 C7.98777674,29.193299 10.6495896,25.306701 10.3538326,20 C14.8641265,22.1675258 16.9344254,25.9793814 18.2653318,30.3891753 C19.4483597,29.3427835 19.522299,28.8943299 19.0786635,25.4561856 C22.6277472,29.1185567 25.1416816,33.0798969 24.9938031,38.0876289 C24.8459246,43.3195876 21.4447193,46.3840206 17.2301824,49 C19.3744205,41.8994845 17.8216963,35.9201031 12.8677669,32.1829897 C12.9417062,35.0231959 12.4241314,37.564433 10.6495896,39.9561856 C10.5756503,38.4613402 10.5017111,37.2654639 9.76231862,35.9948454 C9.24474391,38.0876289 8.28353372,39.806701 7.17444505,41.4510309 C5.6217209,43.8427835 5.91747788,46.3092784 7.02656656,48.7757732 C6.73080958,49.1494845 6.50899184,48.7757732 6.28717411,48.6262887 C4.9562677,47.8041237 3.69930054,46.9072165 2.59021186,45.7860825 C-0.219479446,43.0953608 -0.589175671,39.806701 0.741730738,36.2190722 C1.25930545,34.8737113 1.92475866,33.5283505 2.59021186,32.257732 C3.10778658,31.1365979 3.4774828,29.9407216 3.69930054,28.5206186 Z" id="路径"></path>
                    </g>
                </g>
            </g>
        </g>
    </g>
</svg>