<?xml version="1.0" encoding="UTF-8"?>
<svg width="113px" height="113px" viewBox="0 0 113 113" version="1.1" xmlns="http://www.w3.org/2000/svg" xmlns:xlink="http://www.w3.org/1999/xlink">
    <!-- Generator: Sketch 52.5 (67469) - http://www.bohemiancoding.com/sketch -->
    <title>动土安全</title>
    <desc>Created with Sketch.</desc>
    <g id="1.0-" stroke="none" stroke-width="1" fill="none" fill-rule="evenodd">
        <g id="切图" transform="translate(-1329.000000, -19.000000)">
            <g id="动土安全" transform="translate(1329.000000, 19.000000)">
                <g id="分组-10">
                    <rect id="Rectangle-16-Copy-9" fill="#EDF6FC" x="0" y="0" width="113" height="113" rx="30"></rect>
                    <g id="tujian" transform="translate(23.000000, 24.000000)" fill="#4DA8E5" fill-rule="nonzero">
                        <path d="M67.1216568,62.3050999 C60.7747215,53.3321273 57.2044841,42.9701251 50.8859483,34.0110099 C50.8127122,33.886502 50.7045303,33.7852467 50.5742781,33.719295 C49.5654876,33.3344508 48.4739475,33.2054497 47.4007776,33.3442421 C46.5482872,33.4366017 45.8669793,34.0817699 45.7432261,34.9138694 C45.5439139,35.7518844 45.7247881,36.6334601 46.2390979,37.3307332 C46.6074353,37.8169032 44.1990092,39.6642592 44.5956146,40.108728 C44.7656822,40.317105 44.9498181,40.5115601 45.1056861,40.7199371 C45.2615541,40.9283142 45.2332204,41.1504841 44.9356841,41.3310817 C44.6747398,41.4872512 44.4598806,41.7074819 44.3123438,41.9700058 C44.1446871,42.3017172 44.0345568,42.658492 43.986474,43.0256837 C43.7739387,44.4146488 43.6181365,45.9425749 43.4056012,47.4010205 C43.3207539,48.0326181 43.1785202,48.6555203 42.9805964,49.2622983 C42.8255288,49.9259966 42.2550748,50.4182004 41.5639138,50.4846521 C40.9829753,50.4846521 40.8129734,50.6929646 40.8555068,51.2763944 C40.8828241,52.1419217 40.7235059,53.0033562 40.3879687,53.8043755 C40.0479648,54.707235 39.6512938,55.5961727 39.3396235,56.5823702 C39.0279533,57.5685677 38.829552,58.2214135 38.6312165,59.0547926 C38.5379588,59.4549561 38.7072637,59.8699115 39.056287,60.0966131 C39.5044755,60.4409867 39.934734,60.8072199 40.3454353,61.1939278 C40.6613932,61.484138 40.946235,61.8052831 41.1955106,62.152346 C41.4788472,62.5551781 41.3371789,62.860686 40.8271732,62.9440883 C40.5162548,62.9745403 40.2030152,62.9745403 39.8920969,62.9440883 L33.2760248,62.7495688 L20.2987521,62.4023597 L1.7821517,61.8744885 C1.6251726,61.8627941 1.46918229,61.9072103 1.34301296,61.9995276 C0.936808685,62.3645316 0.575428709,62.7747563 0.266202708,63.2218813 C-0.0681772861,63.8010998 -0.0616590608,64.5112902 0.283298216,65.0845151 C0.628255493,65.6577401 1.25914744,66.0067516 1.93795392,65.9998761 L66.4415834,65.9998761 C67.0735455,66.007921 67.6416988,65.6235701 67.8583317,65.0414579 L68,64.7219637 L68,64.1663776 C67.7597077,63.5234132 67.4659383,62.900893 67.1216568,62.3050999 Z M1.83881904,59.7354177 C3.06722881,59.9641008 4.31991953,59.4771714 5.05478711,58.4853491 C5.45567551,57.9227115 5.77955317,57.3109456 6.01813127,56.6657081 C7.50574659,52.9154377 10.6083801,42.3450585 12.889272,39.0114133 C13.4170415,38.2719346 14.0045128,37.5751923 14.6460241,36.9279011 C14.8312037,36.6940839 15.116196,36.5572866 15.4181326,36.5572866 C15.7200692,36.5572866 16.0050615,36.6940839 16.190241,36.9279011 C16.4875687,37.2361054 16.7666508,37.5607501 17.0261167,37.9002412 C17.2779477,38.210785 17.4040685,38.6015043 17.3803202,38.9975559 L17.3803202,57.8325033 C17.3803202,58.9853765 17.9187253,59.7076385 19.0662053,59.763197 C20.2719235,59.7959083 21.4785462,59.754146 22.6789103,59.638158 C23.1096676,59.5915474 23.5303234,59.4790894 23.9255909,59.3048707 C24.8342266,58.9790858 25.4580416,58.1545005 25.5123412,57.2074367 C25.6005946,56.4046319 25.6478763,55.5980048 25.6540095,54.7905729 C25.6540095,51.0402381 25.5123412,40.3448843 25.4273403,36.5945495 C25.4143856,36.4247238 25.366177,36.2592839 25.285672,36.1083795 C24.7331329,34.9555062 24.081459,33.3303847 23.5147201,32.1913689 C23.5147201,32.0941736 22.0980376,29.6911672 22.0980376,29.5522707 L22.2680395,29.6495304 C27.1557588,33.0108905 31.7601416,40.4282222 34.7635744,43.3868146 C34.9108137,43.5149972 35.0228636,43.6773792 35.0894443,43.8590628 C35.4435821,44.5813246 35.7127847,46.7481747 36.1519891,47.4149425 C36.307311,47.7324502 36.6138792,47.9531231 36.9693777,48.0033123 C37.3248761,48.0535016 37.6824931,47.9265984 37.9228752,47.6649562 C39.912835,46.0349159 41.4564796,43.9437964 42.4139234,41.5810955 C42.5508559,41.2232342 42.5152723,40.8238423 42.3171294,40.4946777 C42.1189865,40.1655131 41.7795666,39.9419308 41.3938462,39.8864935 C40.8273788,39.7173739 40.2424331,39.6147984 39.6512937,39.5809213 C37.4836707,39.4836615 34.791908,34.6777132 33.6302283,32.8442792 C32.7175211,31.7563416 31.8661959,30.6202692 31.0800682,29.4411535 C29.8333875,28.0521884 28.9833123,22.0099644 28.671642,20.1486866 C28.5299737,19.3013857 28.4733064,18.4401628 28.3883055,17.5790044 C28.3071282,15.6622058 27.5163789,13.8400785 26.1640153,12.4535619 C26.749169,12.4019541 27.3309409,12.3184657 27.9066334,12.2034838 C31.171813,11.3274153 33.1399846,8.0703495 32.3551482,4.84177516 C31.7453657,1.64477899 28.6232848,-0.474370786 25.356539,0.0913854304 C22.1892405,0.750650969 20.0498027,3.65956357 20.4120867,6.81417009 C20.5562054,7.98048461 21.005181,9.09052083 21.7155004,10.0366981 C18.7630663,9.32928631 15.6711877,9.41081323 12.7618034,10.27279 C9.97164923,10.9929539 7.37534092,12.3012658 5.1539878,14.1064627 C4.80199611,14.3930642 4.49628505,14.7302575 4.24724518,15.106582 C4.03459572,15.3820808 3.94337218,15.7296167 3.99395814,16.071534 C4.0445441,16.4134513 4.23272329,16.7212518 4.51644776,16.9261586 C4.77658383,17.1538672 5.06736722,17.3454915 5.38065697,17.4956665 C6.42900208,17.9818365 7.49154692,18.4401628 8.53995777,18.8846316 C9.03134924,19.0981929 9.50501178,19.3489879 9.9566404,19.6347373 C10.1863149,20.0205286 10.3220833,20.4530822 10.3533773,20.8987278 C10.3455989,21.366221 10.2886075,21.8316775 10.1833096,22.2876929 C9.90501806,23.5392758 9.3857286,24.7273104 8.65329239,25.7880784 C6.72647259,29.0661651 4.9414525,37.9557998 3.60977088,41.511615 C2.07343578,46.7578129 0.871567638,52.0926606 0.0111341251,57.4852298 C-0.105458082,58.5978329 0.706592224,59.5976755 1.83868756,59.7354177 L1.83881904,59.7354177 Z M24.3505957,18.7040984 C24.6980669,21.0568259 25.4501701,23.3346984 26.5748861,25.4407405 C25.6965428,24.8435177 24.4072631,23.2878123 23.5289199,22.6628102 C23.4639501,22.601788 23.4324024,22.5141395 23.4439189,22.4266539 C23.7414551,21.1904427 24.0955928,19.9542315 24.3505957,18.7040984 Z M10.3250436,15.3982969 L15.3543654,14.3703983 L13.3284764,17.4539654 L10.3250436,15.3982969 Z" id="形状"></path>
                    </g>
                </g>
            </g>
        </g>
    </g>
</svg>