<?xml version="1.0" encoding="UTF-8"?>
<svg width="113px" height="113px" viewBox="0 0 113 113" version="1.1" xmlns="http://www.w3.org/2000/svg" xmlns:xlink="http://www.w3.org/1999/xlink">
    <!-- Generator: Sketch 52.5 (67469) - http://www.bohemiancoding.com/sketch -->
    <title>吊装安全</title>
    <desc>Created with Sketch.</desc>
    <defs>
        <polygon id="path-1" points="0 0 55.1346154 0 55.1346154 61 0 61"></polygon>
    </defs>
    <g id="1.0-" stroke="none" stroke-width="1" fill="none" fill-rule="evenodd">
        <g id="切图" transform="translate(-1067.000000, -22.000000)">
            <g id="吊装安全" transform="translate(1067.000000, 22.000000)">
                <rect id="Rectangle-16-Copy-5" fill="#EFF4FE" x="0" y="0" width="113" height="113" rx="30"></rect>
                <g id="审批-(1)" transform="translate(29.000000, 26.000000)">
                    <mask id="mask-2" fill="white">
                        <use xlink:href="#path-1"></use>
                    </mask>
                    <g id="Clip-2"></g>
                    <g id="diaozhuang-" mask="url(#mask-2)" fill="#6096F8" fill-rule="nonzero">
                        <path d="M41.3080241,29.4762289 C40.9456988,29.5372289 40.4363855,30.084759 40.1681325,30.3133253 C40.0858193,30.3838795 40.0049759,30.4551687 39.9241325,30.5279277 C37.8854096,26.8311807 34.9559398,21.5954699 33.3662651,18.7586024 C33.6139398,18.6976024 33.8447108,18.6380723 34.0549036,18.5829518 C34.8104217,18.3837831 34.758241,17.1123373 34.477494,16.5567229 C34.0482892,15.7063976 33.6146747,14.8582771 33.2464699,13.9800241 C32.6702771,12.6042169 32.7298072,11.0880361 32.7430361,9.62771084 C32.7562651,8.14313253 32.6563133,6.57550602 32.7518554,5.06153012 C32.8202048,3.9760241 33.208253,2.53480723 32.2734096,1.7006506 C31.622253,1.12004819 30.7601687,0.723915663 29.9693735,0.370409639 C28.7721566,-0.165361446 27.4602892,-0.196228916 26.5570482,0.882662651 C25.8919277,1.67713253 25.9727711,2.83025301 25.9852651,3.80110843 L25.9940843,4.52649398 L21.9203133,4.52649398 C21.9386867,3.70924096 22.033494,2.81922892 21.8931205,2.03137349 C21.7255542,1.08624096 20.9553373,0.51886747 20.0579759,0.326313253 C18.373494,-0.0352771084 15.7578434,0.681289157 15.0530361,2.42236145 C15.0515663,2.42603614 15.0500964,2.43044578 15.0478916,2.43485542 C14.7524458,3.19625301 14.8979639,4.02379518 14.9655783,4.81238554 C15.0442169,5.73473494 15.0736145,6.66075904 15.0816988,7.58604819 C15.0993373,9.53878313 15.103012,11.4951928 15.0082048,13.4464578 C14.9310361,15.0324578 14.7436265,16.7441325 13.6066747,17.958253 C12.4035783,19.2421928 10.7955301,20.0498916 9.45353012,21.1684699 C8.21589157,22.2003253 7.0223494,23.2880361 5.91626506,24.461 C3.73422892,26.7738554 1.88144578,29.4475663 0.881927711,32.488747 C0.575185971,33.4212457 0.350903255,34.3788739 0.211662651,35.3506024 C-0.232975904,38.4748313 0.219012048,41.6527108 1.2310241,44.6248072 C2.57890361,48.2928916 4.04437349,51.8198675 10.7631928,56.9019759 C14.4753735,59.7094458 19.3568434,60.9977952 23.9641807,60.9933855 C29.5247349,60.988241 34.9250723,58.9068916 38.832012,54.9051446 C41.6703494,51.9984578 43.7796265,48.385494 44.4087349,44.335241 C44.7526867,42.1201325 44.1022651,39.7786145 44.6497952,37.6142169 C44.9423012,36.4566867 45.5934578,35.4740723 45.9991446,34.3687229 C46.274012,33.6190843 47.397,28.4531928 41.3080241,29.4762289 Z M21.9063494,7.87414458 L26.0690482,7.87414458 C26.1454819,8.97287952 26.4747349,10.1818554 26.1035904,11.2409036 C25.9411687,11.7031807 25.3304337,12.1110723 24.9034337,12.3080361 C23.9053855,12.7681084 22.1077229,12.1198916 21.850494,10.9689759 C21.6498554,10.0694096 21.8732771,8.83618072 21.9063494,7.87414458 Z M35.2771084,38.7908554 C34.9963614,39.8719518 34.989747,41.0206627 34.5370241,42.0561928 C34.2481928,42.7183735 33.8439759,43.334253 33.4133012,43.9119157 C32.2462169,45.4773373 30.7432651,46.835506 29.023506,47.7688795 C23.8370361,50.5851687 18.6233735,47.934241 15.0434819,43.8369518 C14.0329398,42.1524699 12.273494,37.136506 15.3800843,33.0568554 C18.4866747,28.9764699 23.3152289,22.4634337 25.412012,20.7047229 C25.9580723,20.4320602 25.8544458,20.227747 26.461506,20.0094699 C26.6606747,20.3762048 26.9274578,20.7054578 27.2530361,20.9766506 L34.026241,27.0083012 L38.1580723,32.4740482 C37.5003012,33.3589157 36.9520361,34.3246265 36.5441446,35.3491325 C36.0936265,36.4824096 35.5843133,37.6076024 35.2771084,38.7908554 Z" id="形状"></path>
                    </g>
                </g>
            </g>
        </g>
    </g>
</svg>