<?xml version="1.0" encoding="UTF-8"?>
<svg width="113px" height="113px" viewBox="0 0 113 113" version="1.1" xmlns="http://www.w3.org/2000/svg" xmlns:xlink="http://www.w3.org/1999/xlink">
    <!-- Generator: Sketch 52.5 (67469) - http://www.bohemiancoding.com/sketch -->
    <title>工作票</title>
    <desc>Created with Sketch.</desc>
    <g id="1.0-" stroke="none" stroke-width="1" fill="none" fill-rule="evenodd">
        <g id="切图" transform="translate(-330.000000, -22.000000)" fill="#17C195">
            <g id="工作票" transform="translate(330.000000, 22.000000)">
                <rect id="Rectangle-16-Copy-4" opacity="0.1" x="0" y="0" width="113" height="113" rx="30"></rect>
                <g id="公告" transform="translate(25.000000, 26.000000)">
                    <path d="M58.125071,19.3750237 L44.5626301,19.3750237 L35.6499678,8.91266225 C36.4251201,8.13750993 36.8123936,6.97500851 36.8123936,5.81258278 C36.8123936,4.2625052 36.037544,2.71250331 35.2626944,1.55000189 C34.0999659,0.774849579 32.5498884,0 31.0001892,0 C29.4501116,0 27.9001097,0.774849579 26.7376083,1.55000189 C25.962456,2.71250331 25.1876064,4.2625052 25.1876064,5.81258278 C25.1876064,6.97500851 25.5751826,8.13750993 26.3500322,9.29993567 L17.8250218,19.3750237 L3.87492905,19.3750237 C1.55000189,19.3750237 0,20.9250255 0,23.2499527 L0,58.125071 C0,60.4499981 1.55000189,62 3.87492905,62 L58.125071,62 C60.4499981,62 62,60.4499981 62,58.125071 L62,23.2499527 C62,20.9250255 60.4499981,19.3750237 58.125071,19.3750237 Z M27.9001097,10.4623614 C28.6749593,11.2375137 29.8373851,11.6251656 31.0001892,11.6251656 C32.1626149,11.6251656 33.3250407,11.2375137 34.4875421,10.4623614 L42.2374002,19.3750237 L20.5374494,19.3750237 L27.9001097,10.4623614 Z M7.74985809,42.6249763 L38.7500473,42.6249763 L38.7500473,38.7500473 L7.74985809,38.7500473 L7.74985809,42.6249763 Z M7.74985809,54.2501419 L46.4999054,54.2501419 L46.4999054,50.3752129 L7.74985809,50.3752129 L7.74985809,54.2501419 Z M7.74985809,31.0001892 L54.2501419,31.0001892 L54.2501419,27.1248817 L7.74985809,27.1248817 L7.74985809,31.0001892 Z" id="Fill-1"></path>
                </g>
            </g>
        </g>
    </g>
</svg>