<?xml version="1.0" encoding="UTF-8"?>
<svg width="113px" height="113px" viewBox="0 0 113 113" version="1.1" xmlns="http://www.w3.org/2000/svg" xmlns:xlink="http://www.w3.org/1999/xlink">
    <!-- Generator: Sketch 52.5 (67469) - http://www.bohemiancoding.com/sketch -->
    <title>缺陷</title>
    <desc>Created with Sketch.</desc>
    <g id="1.0-" stroke="none" stroke-width="1" fill="none" fill-rule="evenodd">
        <g id="切图" transform="translate(-1889.000000, -22.000000)">
            <g id="缺陷" transform="translate(1889.000000, 22.000000)">
                <rect id="Rectangle-16-Copy-8" fill="#EFF4FE" x="0" y="0" width="113" height="113" rx="30"></rect>
                <g id="quexian" transform="translate(31.000000, 29.000000)" fill="#6096F8">
                    <path d="M46.6905103,25.2381095 L42.9048643,25.2381095 L42.9048643,15.1428657 C42.9048643,12.3540299 40.6460158,10.0952438 37.857177,10.0952438 L27.7619218,10.0952438 L27.7619218,6.30954229 C27.7619218,2.82663243 24.9352265,0 21.4523127,0 C17.9693989,0 15.142823,2.82669214 15.142823,6.30954229 L15.142823,10.0951841 L5.04756787,10.0951841 C2.25878871,10.0951841 0.0251978333,12.3540299 0.0251978333,15.1428657 L0.0125392061,24.7333174 L3.78564605,24.7333174 C7.54609426,24.7333174 10.5999283,27.7871481 10.5999283,31.547592 C10.5999283,35.308036 7.54609426,38.3618667 3.78564605,38.3618667 L0.0125392061,38.3618667 L0,47.9523781 C0,50.7411541 2.25878871,53 5.04756787,53 L14.6380304,53 L14.6380304,49.2142985 C14.6380304,45.4538545 17.6918645,42.4000239 21.4523724,42.4000239 C25.2128803,42.4000239 28.2666547,45.4538545 28.2666547,49.2142985 L28.2666547,52.9999403 L37.8571173,52.9999403 C40.6459561,52.9999403 42.9047448,50.7411541 42.9047448,47.9523781 L42.9047448,37.857194 L46.6904506,37.857194 C50.1733644,37.857194 53,35.0305019 53,31.5476517 C53,28.0648016 50.1733047,25.2380497 46.6905103,25.2380497 L46.6905103,25.2381095 Z" id="路径"></path>
                </g>
            </g>
        </g>
    </g>
</svg>