<?xml version="1.0" encoding="UTF-8"?>
<svg width="90px" height="90px" viewBox="0 0 90 90" version="1.1" xmlns="http://www.w3.org/2000/svg" xmlns:xlink="http://www.w3.org/1999/xlink">
    <!-- Generator: Sketch 52.5 (67469) - http://www.bohemiancoding.com/sketch -->
    <title>培训</title>
    <desc>Created with Sketch.</desc>
    <g id="1.0-" stroke="none" stroke-width="1" fill="none" fill-rule="evenodd">
        <g id="切图" transform="translate(-258.000000, -56.000000)" fill="#FC942C">
            <g id="分组" transform="translate(258.000000, 56.000000)">
                <g id="peixun-2" transform="translate(5.000000, 5.000000)">
                    <path d="M20.9890583,23.4510341 C23.0021443,29.5602043 28.6036119,29.5490774 30.6094112,23.4510341 C31.2707243,23.1024563 31.9520265,22.0719856 32.0620156,21.2193485 C32.1796852,20.3263395 32.1110527,19.1375317 31.2122342,19.1375317 C31.0159869,16.2752552 29.4439404,13.8518519 25.873086,13.8518519 C22.3852404,13.8518519 20.6070014,15.9544455 20.3867279,19.1375317 C19.4879092,19.1375317 19.4190799,20.326241 19.5367495,21.2193485 C19.646837,22.0719856 20.3277453,23.1024564 20.9890583,23.4510341 Z" id="路径"></path>
                    <path d="M33.9188323,58.4895999 L33.9188323,56.3647525 C36.2551896,56.3647525 38.1483411,54.4676622 38.1483411,52.1289416 L38.1483411,51.9873442 L54.6121423,35.5263987 C55.0584006,35.0805343 55.0584006,34.3598447 54.6121423,33.9168359 C54.1692319,33.4709715 53.4490347,33.4709715 53.0057305,33.9168359 L38.1483411,48.7682185 L38.1483411,34.7444619 C38.1483411,31.6947017 35.9246315,29.0574253 32.813821,28.4033003 L30.538711,27.9325234 L25.7995302,37.3719899 L21.060054,27.9325234 L18.7873072,28.4033003 C15.6744289,29.0574252 13.4551504,31.6947017 13.4551504,34.7444619 L13.4551504,52.1289416 C13.4551504,54.4676622 15.3459387,56.3647525 17.6825914,56.3647525 L17.6825914,58.4895999 L33.9188323,58.4895999 Z" id="路径"></path>
                    <path d="M0.035792091,43.8477576 C0.035792091,50.3388864 5.31654849,55.6189535 11.8042308,55.6189535 L11.9416925,55.6189535 C11.3195698,54.5983295 10.9469658,53.4095218 10.9469658,52.1290401 L10.9469658,50.5180987 C7.63094731,50.0889739 5.05166874,47.2795748 5.05166874,43.8478561 L5.05166874,11.8506808 C5.05166874,8.12601892 8.08163677,5.09674016 11.8042308,5.09674016 L67.9803955,5.09674016 C71.703088,5.09674016 74.7334499,8.12601892 74.7334499,11.8506808 L74.7334499,43.8477577 C74.7334499,47.5738966 71.703088,50.6027815 67.9803955,50.6027815 L43.0788458,50.6027814 L40.568298,53.1137231 C40.4239435,54.0372572 40.054195,54.8622246 39.5938557,55.6189535 L67.9803955,55.6189535 C74.4680778,55.6189535 79.7488342,50.3388864 79.7488342,43.8477576 L79.7488343,11.8506808 C79.7488343,5.36063514 74.4680779,0.0805680006 67.9803956,0.0805680006 L11.8042309,0.0805680006 C5.31654859,0.0805680006 0.0357921872,5.36063514 0.0357921872,11.8506808 L0.035792091,43.8477576 Z" id="路径"></path>
                    <path d="M16.5165298,62.6197542 L7.73847485,62.6197542 C3.48395504,62.6197542 0.0356936521,66.068114 0.0356936521,70.3189905 L0.0356936521,80.4889934 L24.2168493,80.4889934 L24.2168493,70.3189905 C24.2169477,66.0680156 20.7687848,62.6197542 16.5165298,62.6197542 Z" id="路径"></path>
                    <path d="M44.4186055,62.6197542 L35.6405505,62.6197542 C31.3860307,62.6197542 27.9373754,66.068114 27.9373754,70.3189905 L27.9373754,80.4889934 L52.1190235,80.4889934 L52.1190235,70.3189905 C52.1190235,66.0680156 48.6703682,62.6197542 44.4186055,62.6197542 Z" id="路径"></path>
                    <path d="M72.3202873,62.6197542 L63.5422324,62.6197542 C59.2879096,62.6197542 55.8394512,66.068114 55.8394512,70.3189905 L55.8394512,80.4889934 L80.0209022,80.4889934 L80.0209022,70.3189905 C80.0210007,66.0680156 76.5719516,62.6197542 72.3202873,62.6197542 Z" id="路径"></path>
                </g>
            </g>
        </g>
    </g>
</svg>