<?xml version="1.0" encoding="UTF-8"?>
<svg width="47px" height="49px" viewBox="0 0 47 49" version="1.1" xmlns="http://www.w3.org/2000/svg" xmlns:xlink="http://www.w3.org/1999/xlink">
    <!-- Generator: Sketch 52.5 (67469) - http://www.bohemiancoding.com/sketch -->
    <title>抄送我的</title>
    <desc>Created with Sketch.</desc>
    <g id="1.0-" stroke="none" stroke-width="1" fill="none" fill-rule="evenodd">
        <g id="切图" transform="translate(-232.000000, -51.000000)" fill="#6096F8">
            <g id="抄送我的" transform="translate(232.000000, 51.000000)">
                <path d="M29.9810572,0 L7.6436797,0 L7.6436797,25.4481704 L10.4142011,25.4481704 L10.4142011,2.79429003 L28.8184951,2.79429003 L29.9564773,3.94203515 L29.9564773,17.1649506 L43.0669165,17.1649506 L44.2049592,18.312513 L44.2049592,46.20571 L10.4142011,46.20571 L10.4142011,34.7292334 L7.6436797,34.7292334 L7.6436797,49 L47,49 L47,17.1899241 L29.9810572,0 Z M32.7515786,14.3956341 L32.7515786,6.76111594 L40.3211563,14.3956341 L32.7515786,14.3956341 Z M0,49 L5.4669407,49 L5.4669407,46.20571 L2.77052136,46.20571 L2.77052136,2.79429003 L5.4669407,2.79429003 L5.4669407,0 L0,0 L0,49 Z" id="Fill-1"></path>
                <polygon id="Fill-2" points="29.9131115 1 8 1 8 28.6344979 28.9979568 28.6344979 21.380363 21.0417682 23.334275 19.0695736 34.3155875 30.0149559 23.334275 40.9603382 21.380363 39.0128194 28.9979568 31.3954741 8 31.3954741 8 47 45 47 45 16.1853992 42.7245521 13.8927207 42.1063578 15.1253649 32.5843655 15.3966778 32.7822385 3.88417442"></polygon>
            </g>
        </g>
    </g>
</svg>