<?xml version="1.0" encoding="UTF-8"?>
<svg width="110px" height="110px" viewBox="0 0 110 110" version="1.1" xmlns="http://www.w3.org/2000/svg" xmlns:xlink="http://www.w3.org/1999/xlink">
    <!-- Generator: Sketch 52.5 (67469) - http://www.bohemiancoding.com/sketch -->
    <title>分组</title>
    <desc>Created with Sketch.</desc>
    <g id="1.0-" stroke="none" stroke-width="1" fill="none" fill-rule="evenodd">
        <g id="信息查询" transform="translate(-41.000000, -789.000000)">
            <g id="Group-13" transform="translate(-1.000000, 0.000000)">
                <g id="Group-12">
                    <g id="导航-/iOS/常规">
                        <g id="分组-3-copy-2" transform="translate(0.000000, 703.000000)">
                            <g id="Group-2-Copy" transform="translate(0.000000, 75.000000)">
                                <g id="分组" transform="translate(42.000000, 11.000000)">
                                    <rect id="矩形" fill="#FFFFFF" x="0" y="0" width="110" height="110"></rect>
                                    <g id="shebeidangan" transform="translate(15.000000, 15.000000)" fill="#06B6A8" fill-rule="nonzero">
                                        <path d="M56.8425367,0 L37.4208212,0 C35.0704225,0 33.2766972,1.78461538 33.2766972,4.12307692 L33.2766972,67.5692308 L27.7099635,67.5692308 L27.7099635,4.12307692 C27.7099635,1.90769231 25.9162382,0 23.5658395,0 L4.144124,0 C1.79372531,0 0,1.78461538 0,4.12307692 L0,75.8769231 C0,78.0923077 1.79372531,80 4.144124,80 L23.5658395,80 C25.9162382,80 27.7099635,78.2153846 27.7099635,75.8769231 L27.7099635,73.1076923 L33.2766972,73.1076923 L33.2766972,75.8769231 C33.2766972,78.0923077 35.0704225,80 37.4208212,80 L56.8425367,80 C59.1929354,80 60.9866607,78.2153846 60.9866607,75.8769231 L60.9866607,4.12307692 C60.9866607,1.78461538 59.1929354,0 56.8425367,0 Z M12.4942246,73.1076923 L6.92749087,73.1076923 L6.92749087,67.5692308 L12.4942246,67.5692308 L12.4942246,73.1076923 Z M20.7824726,12.4307692 L6.92749087,12.4307692 L6.92749087,6.89230769 L20.7824726,6.89230769 L20.7824726,12.4307692 Z M45.7709218,73.1076923 L40.2041881,73.1076923 L40.2041881,67.5692308 L45.7709218,67.5692308 L45.7709218,73.1076923 Z M54.0591698,12.4307692 L40.2041881,12.4307692 L40.2041881,6.89230769 L54.0591698,6.89230769 L54.0591698,12.4307692 Z M75.0272002,80 C72.8005067,80 71.0067814,78.2153846 71.0067814,76 L71.0067814,4 C71.0067814,1.78461538 72.8005067,2.84217094e-14 75.0272002,2.84217094e-14 C77.2538937,2.84217094e-14 79.047619,1.78461538 79.047619,4 L79.047619,76 C79.047619,78.2153846 77.2538937,80 75.0272002,80 Z" id="形状"></path>
                                    </g>
                                </g>
                            </g>
                        </g>
                    </g>
                </g>
            </g>
        </g>
    </g>
</svg>