<?xml version="1.0" encoding="UTF-8"?>
<svg width="110px" height="110px" viewBox="0 0 110 110" version="1.1" xmlns="http://www.w3.org/2000/svg" xmlns:xlink="http://www.w3.org/1999/xlink">
    <!-- Generator: Sketch 52.5 (67469) - http://www.bohemiancoding.com/sketch -->
    <title>分组 2</title>
    <desc>Created with Sketch.</desc>
    <g id="1.0-" stroke="none" stroke-width="1" fill="none" fill-rule="evenodd">
        <g id="信息查询" transform="translate(-227.000000, -214.000000)">
            <g id="Group-13" transform="translate(-1.000000, 0.000000)">
                <g id="Group-12">
                    <g id="导航-/iOS/常规">
                        <g id="Group-2" transform="translate(0.000000, 204.000000)">
                            <g id="分组-2" transform="translate(228.000000, 10.000000)">
                                <rect id="矩形" fill="#FFFFFF" x="0" y="0" width="110" height="110"></rect>
                                <g id="product" transform="translate(16.000000, 16.000000)" fill="#06B6A8" fill-rule="nonzero">
                                    <path d="M0.0810810811,74.75 C0.0810810811,76.5375 1.54054054,78 3.32432432,78 L74.6756757,78 C76.4594595,78 77.9189189,76.5375 77.9189189,74.75 L77.9189189,19.5 L0.0810810811,19.5 L0.0810810811,74.75 Z M45.4054054,45.5 L64.9459459,45.5 L64.9459459,52 L45.4054054,52 L45.4054054,45.5 Z M38.9189189,58.5 L64.9459459,58.5 L64.9459459,65 L38.9189189,65 L38.9189189,58.5 Z M37.2972973,16.25 L0,16.25 L7.78378378,2.51875 C9,0.89375 10.8648649,0 12.8918919,0 L37.2972973,0 L37.2972973,16.25 Z M78,16.25 L40.7027027,16.25 L40.7027027,0 L65.1081081,0 C67.1351351,0 69,0.975 70.2162162,2.51875 L78,16.25 Z" id="形状"></path>
                                </g>
                            </g>
                        </g>
                    </g>
                </g>
            </g>
        </g>
    </g>
</svg>