<?xml version="1.0" encoding="UTF-8"?>
<svg width="110px" height="110px" viewBox="0 0 110 110" version="1.1" xmlns="http://www.w3.org/2000/svg" xmlns:xlink="http://www.w3.org/1999/xlink">
    <!-- Generator: Sketch 52.5 (67469) - http://www.bohemiancoding.com/sketch -->
    <title>分组 2</title>
    <desc>Created with Sketch.</desc>
    <g id="1.0-" stroke="none" stroke-width="1" fill="none" fill-rule="evenodd">
        <g id="信息查询" transform="translate(-227.000000, -501.000000)">
            <g id="Group-13" transform="translate(-1.000000, 0.000000)">
                <g id="Group-12">
                    <g id="导航-/iOS/常规">
                        <g id="分组-3" transform="translate(0.000000, 416.000000)">
                            <g id="Group-2-Copy" transform="translate(0.000000, 75.000000)">
                                <g id="分组-2" transform="translate(228.000000, 10.000000)">
                                    <rect id="矩形" fill="#FFFFFF" x="0" y="0" width="110" height="110"></rect>
                                    <g id="rencopyx" transform="translate(4.000000, 15.000000)" fill="#58A5FF" fill-rule="nonzero">
                                        <path d="M34.6404819,48.7023163 C35.5073894,48.3785412 36.559695,48.0685438 37.8094151,47.2883837 C39.6290626,46.1465599 41.0281312,43.7768018 37.6497668,40.8748816 C26.4434849,24.6981831 30.5291085,13.9567726 32.2251573,9.9113063 C30.8020556,9.35331094 29.1935559,9.03125805 27.3361422,9.03125805 L26.7524816,9.03125805 C16.0320112,9.03125805 13.1840912,18.7927323 12.9729435,24.2762421 C12.8253118,37.1893568 20.7115953,42.3387583 20.7115953,42.3387583 C20.7115953,42.3387583 21.2077068,43.0207526 21.2077067,44.9926806 C21.2077067,45.4404546 20.9090098,46.7906656 20.4146151,47.1884957 C16.0199947,50.7603547 1.32376621,54.482046 0.307510301,62.1717041 C-0.236667283,64.3933523 0.084346019,66.7011108 0.19592816,68.8452596 C2.59923612,70.696633 10.3001216,72.2586756 10.3001216,72.2586756 C10.3001216,72.2586756 10.9438649,70.3125808 11.5876081,67.0989409 C12.5283315,62.3353139 18.9520305,54.6439335 34.6404819,48.7023163 Z M102.686715,62.0993714 C101.634409,54.4200464 86.5536514,50.6983553 82.0474489,47.1385516 C81.5273044,46.7286661 81.2303243,45.3887884 81.2303243,44.9427366 C81.2303243,42.9708086 81.724719,42.3008697 81.724719,42.3008697 C81.724719,42.3008697 89.8101338,37.1652459 89.6607854,24.2641866 C89.4376211,18.7927322 86.0335069,9.03125805 75.5344842,9.03125805 L74.9405238,9.03125805 C72.6745477,9.03125805 70.7810843,9.46525443 69.1468349,10.1713597 C71.3870612,17.7025746 74.0856328,31.5336261 62.7334358,40.7991044 C58.2752994,47.4606044 73.1191597,51.3562387 70.8188506,50.314303 C84.2378926,56.3678636 87.8531544,61.0074916 88.8436607,65.7969517 C89.6607854,69.8028072 90.1311472,72.2466201 90.1311471,72.2466201 C90.131147,72.2466201 100.197574,70.7086885 102.798297,68.748816 C102.909879,66.6270559 103.244626,64.3192973 102.686715,62.0993714 Z M58.8812764,47.3607164 C58.2495498,46.8509429 57.877037,45.1769568 57.877037,44.6310169 C57.877037,42.187204 58.4847306,41.3433221 58.4847306,41.3433221 C58.472714,41.3570998 68.413826,35.9597003 68.2164113,18.9287867 C67.9451809,12.1312323 63.7720082,0 50.881694,0 L50.1521184,0 C36.6695605,0 33.0903482,12.1191768 32.8191177,18.9305089 C32.6337196,34.9694309 42.5507985,41.3450444 42.5507985,41.3450444 C42.5507985,41.3450444 43.7524525,42.7228106 43.7524525,45.1666236 C43.7524525,45.724619 42.7979959,46.8664428 42.1662692,47.3624386 C36.6317942,51.7902351 16.7118041,56.2559201 15.422601,65.8072849 C14.4200782,69.8527512 8.51480715,76.2783088 28.1773,78.8702316 C33.5984762,79.5763368 40.9525987,80 50.8954272,80 C96.50678,80 87.0720793,71.1426849 85.7966094,65.957117 C84.4971065,56.4057521 64.4157514,51.7902351 58.8795597,47.3624386 L58.8812764,47.3607164 Z" id="形状"></path>
                                    </g>
                                </g>
                            </g>
                        </g>
                    </g>
                </g>
            </g>
        </g>
    </g>
</svg>