<?xml version="1.0" encoding="UTF-8"?>
<svg width="110px" height="110px" viewBox="0 0 110 110" version="1.1" xmlns="http://www.w3.org/2000/svg" xmlns:xlink="http://www.w3.org/1999/xlink">
    <!-- Generator: Sketch 52.5 (67469) - http://www.bohemiancoding.com/sketch -->
    <title>分组</title>
    <desc>Created with Sketch.</desc>
    <g id="1.0-" stroke="none" stroke-width="1" fill="none" fill-rule="evenodd">
        <g id="信息查询" transform="translate(-41.000000, -1076.000000)">
            <g id="Group-13" transform="translate(-1.000000, 0.000000)">
                <g id="Group-12">
                    <g id="导航-/iOS/常规">
                        <g id="分组-3-copy-4" transform="translate(0.000000, 990.000000)">
                            <g id="Group-2-Copy" transform="translate(0.000000, 75.000000)">
                                <g id="分组" transform="translate(42.000000, 11.000000)">
                                    <rect id="矩形" fill="#FFFFFF" x="0" y="0" width="110" height="110"></rect>
                                    <g id="yuangong-2" transform="translate(15.000000, 12.000000)" fill="#E4393C" fill-rule="nonzero">
                                        <path d="M63.6179818,63.0666667 L54.8623062,63.0666667 C54.6386839,63.0666667 54.4666667,63.2401537 54.4666667,63.4466859 L54.4666667,68.4199808 C54.4666667,68.6347743 54.6472847,68.8 54.8623062,68.8 L63.6265827,68.8 C63.850205,68.8 64.0222222,68.626513 64.0222222,68.4199808 L64.0222222,63.4549472 C64.0222222,63.2401537 63.8416042,63.0666667 63.6179818,63.0666667 Z M59.6787879,64.7519693 L61.9322132,64.7519693 C62.1558356,64.7519693 62.3278528,64.9254563 62.3278528,65.1319885 C62.3278528,65.3467819 62.1472347,65.5120077 61.9322132,65.5120077 L59.6787879,65.5120077 C59.4551655,65.5120077 59.2831483,65.3385207 59.2831483,65.1319885 C59.2745475,64.9254563 59.4551655,64.7519693 59.6787879,64.7519693 Z M58.2768477,67.0486071 C58.2768477,67.362536 58.010221,67.6268972 57.6747875,67.6268972 L55.6793879,67.6268972 C55.3525553,67.6268972 55.0773277,67.3707973 55.0773277,67.0486071 L55.0773277,64.7519693 C55.0773277,64.4380403 55.3439544,64.1736792 55.6793879,64.1736792 L57.6747875,64.1736792 C58.0016202,64.1736792 58.2768477,64.4297791 58.2768477,64.7519693 L58.2768477,67.0486071 Z M62.3192519,67.246878 L59.6787879,67.246878 C59.4551655,67.246878 59.2831483,67.073391 59.2831483,66.8668588 C59.2831483,66.6520653 59.4637664,66.4868396 59.6787879,66.4868396 L62.3192519,66.4868396 C62.5428743,66.4868396 62.7148915,66.6603266 62.7148915,66.8668588 C62.7148915,67.073391 62.5428743,67.246878 62.3192519,67.246878 Z" id="形状"></path>
                                        <path d="M78.9500915,67.6263763 C78.7855116,65.7966738 78.4853949,64.1884622 78.0981509,62.7439673 C77.7786715,61.0201986 76.6556533,56.8792923 73.0542549,54.0769641 C70.7017267,52.0161387 65.6094237,51.351674 65.0382328,51.3227784 C61.9693015,50.9760983 59.4328289,49.9938407 57.3320096,49.2426976 C50.7488021,46.3248037 47.8250659,40.9705255 47.4959434,40.2963867 C48.9965225,39.6608067 50.7004208,37.4844266 52.1235523,35.2598929 C52.9077284,34.1620697 53.6725468,32.9005467 54.3211768,31.5041943 C54.8826855,30.4448986 55.2312073,29.7322746 55.2312073,29.7322746 C55.2312073,29.7322746 55.4054687,29.8767249 55.6862226,29.9345044 C56.5381632,30.213774 58.0774746,29.8574644 58.9003745,24.3394714 C60.0717971,16.4717537 57.2932986,17.4925388 57.2932986,17.4925388 C57.2932986,17.4925388 58.2904598,8.64254672 51.7653422,3.52901482 C49.2288696,1.3911512 45.5306575,-0.0918712331 40.1576474,0.00443068359 C34.7845863,-0.0918695404 31.0863571,1.3911512 28.5499525,3.52901482 C22.024835,8.64254672 23.0219962,17.4925388 23.0219962,17.4925388 C23.0219962,17.4925388 20.2434977,16.4717537 21.4149203,24.3394714 C22.237821,29.8574663 23.7771316,30.2137783 24.6290722,29.9345044 C24.9098261,29.8670943 25.0840874,29.7322746 25.0840874,29.7322746 C25.0840874,29.7322746 25.4229288,30.4448944 25.994118,31.5041943 C26.633076,32.9101702 27.3978919,34.1620781 28.1917425,35.2598929 C29.614874,37.4747947 31.3187637,39.6511774 32.8193513,40.2963867 C32.4998719,40.9608572 29.5761587,46.3247699 22.9832852,49.2426976 C20.8824659,49.984208 18.3460018,50.9760983 15.277062,51.3227784 C14.6961905,51.3516684 9.61356812,52.0161387 7.2610399,54.0769641 C3.6596415,56.8792923 2.53662581,61.0201986 2.21714383,62.7439673 C1.82989648,64.1788388 1.52977981,65.7966738 1.36520324,67.6263763 L0,86 L80.2666667,86 L78.9500235,67.6259532 L78.9500915,67.6263763 Z M45.1143745,73.5969767 L40.6707101,78.7008767 L35.1524368,73.4525238 L39.2572616,51.0146343 L35.1524368,47.3744929 L37.6405026,44.6106838 L42.3262014,44.6106838 L45.1046999,47.3744929 L41.367764,51.0146343 L45.1143745,73.5969598 L45.1143745,73.5969767 Z M70.1692936,70.7368656 C70.1692936,71.2279961 69.7723648,71.6324531 69.2689461,71.6324531 L54.3405259,71.6324531 C53.8467852,71.6324531 53.4401785,71.2376229 53.4401785,70.7368656 L53.4401785,61.2416727 C53.4401785,60.7505422 53.8467886,60.3460852 54.3405259,60.3460852 L69.2688865,60.3460852 C69.7626273,60.3460852 70.169234,60.7409154 70.169234,61.2416727 L70.169234,70.7368656 L70.1692936,70.7368656 Z" id="形状"></path>
                                    </g>
                                </g>
                            </g>
                        </g>
                    </g>
                </g>
            </g>
        </g>
    </g>
</svg>