<?xml version="1.0" encoding="UTF-8"?>
<svg width="110px" height="110px" viewBox="0 0 110 110" version="1.1" xmlns="http://www.w3.org/2000/svg" xmlns:xlink="http://www.w3.org/1999/xlink">
    <!-- Generator: Sketch 52.5 (67469) - http://www.bohemiancoding.com/sketch -->
    <title>分组</title>
    <desc>Created with Sketch.</desc>
    <g id="1.0-" stroke="none" stroke-width="1" fill="none" fill-rule="evenodd">
        <g id="信息查询" transform="translate(-41.000000, -502.000000)">
            <g id="Group-13" transform="translate(-1.000000, 0.000000)">
                <g id="Group-12">
                    <g id="导航-/iOS/常规">
                        <g id="分组-3" transform="translate(0.000000, 416.000000)">
                            <g id="Group-2-Copy" transform="translate(0.000000, 75.000000)">
                                <g id="分组" transform="translate(42.000000, 11.000000)">
                                    <rect id="矩形" fill="#FFFFFF" x="0" y="0" width="110" height="110"></rect>
                                    <g id="chengbaoshang" transform="translate(16.000000, 8.000000)" fill="#FC942C" fill-rule="nonzero">
                                        <path d="M33.3430183,90.2780434 C33.3430183,80.0273174 37.9746253,72.9628541 37.9746253,72.9628541 L33.2235297,70.3959875 C33.2235297,68.1639296 39.1695116,65.6026431 39.1695116,65.6026431 C39.1695116,65.6026431 44.8594465,68.0579068 44.8594465,70.3959875 L40.358708,72.9628541 C40.358708,72.9628541 44.8765163,80.0273174 44.8765163,90.3673257 C44.8765163,91.8014229 33.3430183,91.4666143 33.3430183,90.2780434 M52.3815404,59.6542087 C52.3815404,59.6542087 47.2150795,58.5270195 49.6617515,53.5327899 C52.6831069,49.5987878 54.5266458,45.1346719 54.6688942,43.672674 C54.6688942,43.672674 59.3232609,40.1237019 59.5906879,34.7946636 C59.8865645,29.4767856 58.5778795,29.2256791 58.5778795,29.2256791 C60.5238372,23.4279087 61.1611099,1.66534392 46.7541948,4.2656914 C44.3473524,-0.298867052 29.2860948,-3.88132002 22.2647151,8.28339566 C18.7654052,14.3434329 17.4681,22.6243678 20.1935788,29.376343 C20.09116,29.8785561 19.2262899,28.8908704 18.9133435,32.0101714 C18.606087,35.0234496 20.005811,39.3369015 21.5307135,41.3345933 C22.1850561,42.1771952 23.2490739,42.7965913 23.9887654,43.1090794 C23.9887654,43.1090794 24.899155,48.4715985 29.2235055,53.5327899 C30.2135542,57.5393338 26.1054212,59.6542087 26.1054212,59.6542087 C12.5064768,62.1987548 0,69.5143246 0,77.4325501 L0,83.5651292 C0,92.1585522 20.6544636,94 39.2321009,94 C57.8211181,94 78.3333333,88.8272058 78.3333333,83.5651292 L78.3333333,77.4269699 C78.3333333,69.5143246 65.9804847,62.1931746 52.3815404,59.6542087" id="形状"></path>
                                    </g>
                                </g>
                            </g>
                        </g>
                    </g>
                </g>
            </g>
        </g>
    </g>
</svg>