<?xml version="1.0" encoding="UTF-8"?>
<svg width="110px" height="110px" viewBox="0 0 110 110" version="1.1" xmlns="http://www.w3.org/2000/svg" xmlns:xlink="http://www.w3.org/1999/xlink">
    <!-- Generator: Sketch 52.5 (67469) - http://www.bohemiancoding.com/sketch -->
    <title>分组 2</title>
    <desc>Created with Sketch.</desc>
    <g id="1.0-" stroke="none" stroke-width="1" fill="none" fill-rule="evenodd">
        <g id="信息查询" transform="translate(-227.000000, -788.000000)">
            <g id="Group-13" transform="translate(-1.000000, 0.000000)">
                <g id="Group-12">
                    <g id="导航-/iOS/常规">
                        <g id="分组-3-copy-2" transform="translate(0.000000, 703.000000)">
                            <g id="Group-2-Copy" transform="translate(0.000000, 75.000000)">
                                <g id="分组-2" transform="translate(228.000000, 10.000000)">
                                    <rect id="矩形" fill="#FFFFFF" x="0" y="0" width="110" height="110"></rect>
                                    <g id="weihubaoyanglogo" transform="translate(9.000000, 13.000000)" fill="#028EE3" fill-rule="nonzero">
                                        <path d="M34.8759508,6.01779569 C28.7445423,-0.132699912 19.6994885,-1.57929648 12.1946445,1.72720996 L23.0742157,12.6308086 C25.9976713,15.5338425 25.9976713,20.2869455 23.0742157,23.1801386 C20.1507601,26.0831725 15.4614589,26.0831725 12.5380034,23.1801386 L1.71729367,12.27654 C-1.54952077,19.8145874 -0.176085266,28.8582762 6.01418474,35.0678165 C11.2234294,40.3424815 18.6105503,42.0843019 25.3109535,40.4605711 L32.0702182,47.2408774 L33.3259307,45.9615743 C33.7281511,45.5581018 34.189233,45.2038333 34.6405047,44.9184503 L33.9537869,44.3968882 L33.8360639,44.3378435 L33.7183408,44.219754 L33.6006178,44.1016645 C33.1395359,43.6391472 32.7373155,43.1175852 32.3449053,42.4779336 C31.7170491,41.4348096 31.2559672,40.1555065 31.1382442,38.7679547 C30.6183007,37.0851791 31.481603,34.0738964 33.6006178,31.9876483 L33.6594793,31.9286036 L33.7183408,31.8695588 L35.6607711,30.1277384 L39.6143032,26.1225357 C39.8399391,25.8863567 40.0753852,25.7190632 40.301021,25.4828842 L40.301021,25.4238394 C41.9197128,18.6533739 40.1440569,11.233416 34.8759508,6.01779569 Z M81.4942758,66.843737 L55.4971038,40.6869093 L49.1400595,40.6869093 L45.5887477,44.0524605 C44.558671,45.0365398 43.3029586,45.7942808 41.8706616,46.1387086 C43.7640405,45.4400123 43.8130918,45.4990571 43.8719533,45.5581018 L44.0485379,45.6761913 L44.2251224,45.8533256 C44.7941171,46.4339324 45.255199,47.0735839 45.5985579,47.7624394 C45.9419168,47.7033947 46.3441372,47.7033947 46.6874961,47.7033947 C48.8065108,47.7033947 50.7489411,48.5103397 52.1812381,50.0258218 C53.5546736,51.4133736 54.3002528,53.155194 54.4670272,55.0151038 C55.6148268,55.4185764 56.6449035,55.9991831 57.4983955,56.8750137 C59.1563284,58.5577893 59.9019076,60.8211717 59.7351333,63.0255093 C60.1373537,63.2616883 60.5395741,63.5470713 60.9417945,63.8324543 C62.5408659,65.1708022 63.5218912,67.079916 63.6886655,69.1661641 C63.8652501,71.2524122 63.2275836,73.2796156 61.9130096,74.9033464 L60.76521,76.2416943 L66.376675,81.8706278 C68.4368283,83.9568759 71.1248377,85 73.881519,85 C76.5695285,85 79.3262097,83.9568759 81.386363,81.8706278 C85.6734438,77.8063803 85.6734438,71.0162332 81.4942758,66.843737 Z M58.6461952,66.843737 C57.8417544,66.1450407 56.703765,65.8006129 55.6148268,65.9187024 L54.4081656,66.036792 L55.2126064,65.1117574 C56.5860419,63.4880266 56.4683189,61.1065547 54.9869706,59.6599581 C53.8980325,58.5577893 52.1812381,58.1543168 50.7489411,58.7349236 L49.316644,59.2564856 L50.1799463,57.9771825 C51.2688845,56.3534517 51.0922999,54.2081588 49.7188644,52.820607 C48.9732852,52.062866 47.9432085,51.6003487 46.8542704,51.6003487 C45.7653322,51.6003487 44.7352556,52.0038212 43.9896763,52.820607 L42.0962974,54.7297208 L42.7241536,52.820607 C42.8418767,52.4761793 42.9007382,52.013662 42.9007382,51.5413039 C42.9007382,50.4391351 42.4396563,49.3960111 41.7529385,48.6973148 L41.6352155,48.5792252 C40.8896362,47.8805289 39.9184211,47.4770564 38.8883445,47.4770564 C38.6038471,47.4770564 38.3193498,47.5361012 37.9759909,47.595146 C37.2304116,47.7722802 36.5436939,48.1757527 36.0335607,48.6973148 L31.1676749,53.5685073 C31.0499519,53.6865968 30.9420391,53.8046863 30.8831776,53.912935 L30.824316,53.9719798 C29.6176548,55.5957106 29.7942394,57.859093 31.1676749,59.3056896 C32.3743361,60.5259479 34.149992,60.8703757 35.8079249,60.0634306 L37.1224988,59.4237791 L36.4946426,60.7030822 C35.7490633,62.2677683 36.0335607,64.1276781 37.2402219,65.3380957 C38.4468831,66.558354 40.222539,66.9027817 41.8804718,66.0958367 L43.1950458,65.4561852 L42.5671896,66.7354883 C42.2826922,67.2570503 42.1649692,67.8967018 42.1649692,68.5363534 C42.1649692,69.6385222 42.6260511,70.6816462 43.3716304,71.4393873 C44.5782916,72.6006009 46.3539474,73.0040734 48.0118803,72.1971284 L49.2675928,71.5574768 L48.6397365,72.8367799 C47.8352957,74.5195555 48.2375161,76.5467588 49.6698132,77.7079724 C50.4153924,78.347624 51.327746,78.633007 52.2499098,78.633007 C53.3977095,78.633007 54.4866477,78.1704897 55.2322269,77.2946591 L55.34995,77.1765696 L59.2740514,72.4136258 C59.9607692,71.6066808 60.304128,70.504512 60.186405,69.4515471 C60.0196307,68.4674678 59.4996872,67.5424333 58.6461952,66.843737 Z M90.4216065,29.4979277 L76.2163593,15.2287779 L64.1399372,27.3526348 L45.6476092,27.3526348 C44.3918967,27.3526348 43.126374,27.8741969 42.2140204,28.7401866 L38.1525755,32.7945933 L36.0924222,34.5954585 C34.9446225,35.756672 34.4344894,37.4394476 34.8367098,39.1222232 C34.9544328,39.5847405 35.1212071,40.0472578 35.4057045,40.509775 C35.6313403,40.8542028 35.8667864,41.2084713 36.0924222,41.4348096 L36.2690068,41.5528991 C37.1813604,42.3598441 38.32916,42.8322022 39.5358212,42.8322022 L39.9969031,42.8322022 C41.1447028,42.7141126 42.1747794,42.2515954 42.9203587,41.4446504 L47.6194702,36.9769303 L57.7534621,36.9769303 L61.4224969,40.509775 L74.3033599,53.3815322 L90.3333142,37.2623133 C92.5406213,35.1268613 92.5406213,31.6432206 90.4216065,29.4979277 Z" id="形状"></path>
                                    </g>
                                </g>
                            </g>
                        </g>
                    </g>
                </g>
            </g>
        </g>
    </g>
</svg>