<?xml version="1.0" encoding="UTF-8"?>
<svg width="111px" height="111px" viewBox="0 0 111 111" version="1.1" xmlns="http://www.w3.org/2000/svg" xmlns:xlink="http://www.w3.org/1999/xlink">
    <!-- Generator: Sketch 52.5 (67469) - http://www.bohemiancoding.com/sketch -->
    <title>分组 8</title>
    <desc>Created with Sketch.</desc>
    <g id="1.0-" stroke="none" stroke-width="1" fill="none" fill-rule="evenodd">
        <g id="数据监控" transform="translate(-226.000000, -2175.000000)">
            <g id="Group-Copy" transform="translate(375.500000, 2225.000000) rotate(-90.000000) translate(-375.500000, -2225.000000) translate(228.000000, 1850.000000)">
                <g id="分组-8" transform="translate(87.000000, 226.000000)">
                    <rect id="Rectangle-16-Copy-6" fill="#FFFFFF" transform="translate(55.001013, 55.000000) rotate(-270.000000) translate(-55.001013, -55.000000) " x="0.00101267906" y="0" width="110" height="110"></rect>
                    <g id="分组-2" transform="translate(50.143870, 55.000000) rotate(-270.000000) translate(-50.143870, -55.000000) translate(-4.856130, 5.000000)" fill="#EB544D">
                        <g id="shaokao-2" transform="translate(0.000000, 0.000000)">
                            <path d="M33.2214744,41 C33.2214744,41 39.05993,49.9192007 38.0877394,57.1930777 C37.3227371,62.9112803 31.6046986,66.5622814 31.6046986,66.5622814 C31.6046986,66.5622814 27.1156222,68.6769441 24.2893634,69.1216737 C21.404667,69.5716767 20.1792465,68.3517466 20.1792465,68.3517466 C20.1792465,68.3517466 19.5877864,67.3656071 20.3457054,65.7378618 C21.1656038,63.9800375 23.338423,61.5665447 23.338423,61.5665447 C23.338423,61.5665447 26.2744737,57.8680823 24.9020737,54.3137615 C23.5881113,50.926434 18.7838256,48.4373547 18.7838256,48.4373547 C18.7838256,48.4373547 20.1951841,52.1199967 19.3133064,54.8868122 C18.1976779,58.3936718 14.8153758,60.1075505 14.8153758,60.1075505 C14.8153758,60.1075505 9.9615066,62.703857 6.27107852,65.5005555 C3.37044454,67.6995938 1.44200108,70.2466812 1.44200108,70.2466812 C1.44200108,70.2466812 -1.24259056,74.4179984 0.714186327,76.9510232 C2.86221381,79.7301435 9.67108904,80.8973389 9.67108904,80.8973389 C9.67108904,80.8973389 14.2203739,81.3807405 17.6239261,80.6934312 C21.0894577,79.9973328 23.4110274,78.1252499 23.4110274,78.1252499 C23.4110274,78.1252499 25.8282224,76.2144948 26.3081197,77.4502453 C26.7242668,78.5277917 24.2185299,80.4578828 24.2185299,80.4578828 C24.2185299,80.4578828 22.38217,81.9485178 20.5741436,83.0559471 C18.8192423,84.1387669 17.0909037,84.8348654 17.0909037,84.8348654 C17.0909037,84.8348654 12.7753695,89.6864605 16.0018378,95.1814194 C19.1503892,100.539268 26.3470781,98.9097648 26.3470781,98.9097648 C26.3470781,98.9097648 30.1703191,97.6283108 33.632309,95.084739 C36.9650276,92.6325741 39.9400368,88.9165335 39.9400368,88.9165335 C39.9400368,88.9165335 41.9729598,87.209686 44.0536954,87.1745295 C46.4035985,87.1376152 48.8314185,88.7723919 48.8314185,88.7723919 C48.8314185,88.7723919 55.2808135,94.9493866 60.8819766,94.6189156 C67.0444957,94.2585616 72.413679,87.3889841 72.413679,87.3889841 C72.413679,87.3889841 73.9082669,86.3430786 75.8579605,86.6155414 C77.8359874,86.889762 80.2779741,88.480593 80.2779741,88.480593 C80.2779741,88.480593 85.5320529,91.3669406 90.78259,91.5233869 C94.8643734,91.6481925 99.2348036,89.0659485 99.2348036,89.0659485 C99.2348036,89.0659485 100.410641,88.2960215 101.237622,85.2233445 C101.981375,82.4776229 102.392209,77.3957528 102.392209,77.3957528 C102.392209,77.3957528 102.806585,74.5041318 104.446382,72.8043156 C106.036595,71.1519608 108.859313,70.6861373 108.859313,70.6861373 C108.859313,70.6861373 110.731089,69.8371082 109.679211,68.5310447 C109.330356,68.1021355 107.385975,68.8615157 107.385975,68.8615157 C107.385975,68.8615157 103.764609,70.8285211 100.991476,73.0838097 C98.5317806,75.0789403 96.8831297,77.393995 96.8831297,77.393995 C96.8831297,77.393995 92.7181168,83.6852482 89.5819612,80.4367889 C86.0332003,76.7717251 90.7135272,72.5793141 90.7135272,72.5793141 C90.7135272,72.5793141 94.7669773,68.9300708 93.6460363,64.8677388 C92.452491,60.5487644 86.0827838,55.8043965 86.0827838,55.8043965 L79.1765124,50.9914735 C79.1765124,50.9914735 77.3649443,49.4832602 77.7067162,47.2490655 C78.0980716,44.6896733 80.6463086,41.3656275 80.6463086,41.3656275 C80.6463086,41.3656275 75.1921251,42.5046976 73.4655572,47.0310953 C72.2135742,50.3129533 75.0628538,54.1291899 75.0628538,54.1291899 L79.6174513,60.4749358 C79.6174513,60.4749358 84.4288203,65.6904006 76.9257763,70.5173862 C69.5449201,75.272301 67.1277251,67.4042793 67.1277251,67.4042793 C67.1277251,67.4042793 66.4052229,64.3843371 64.1261533,62.5931141 C61.8152087,60.7755237 57.944155,60.1831369 57.944155,60.1831369 C57.944155,60.1831369 61.2308319,65.4021174 59.7858274,69.2113227 C58.4045731,72.8377143 52.2845542,75.0631199 52.2845542,75.0631199 C52.2845542,75.0631199 45.1197404,76.4535589 42.8530667,72.8447456 C41.1123321,70.0726566 44.1280706,62.0798294 44.1280706,62.0798294 C44.1280706,62.0798294 45.4827623,54.7918897 43.2639013,49.4111894 C41.4452498,45.0060817 35.9733579,42.3148526 35.9733579,42.3148526 L33.2214744,41 Z" id="路径"></path>
                            <g id="EFliusuanyan" transform="translate(20.000000, 0.000000)" fill-rule="nonzero">
                                <path d="M8.77660176,24.2493923 C8.77660176,26.5705283 6.8918434,28.4566468 4.56666042,28.4566468 C2.24408555,28.4566468 0.356545206,26.5705283 0.356545206,24.2493923 C0.356545206,21.928126 2.24404209,20.0426157 4.56666042,20.0426157 C6.8918434,20.0426157 8.77660176,21.9280826 8.77660176,24.2493923 M28.7497519,22.1502716 C28.7497519,23.1381619 27.9475809,23.9409069 26.957973,23.9409069 C25.9694518,23.9409069 25.1661072,23.1381619 25.1661072,22.1502716 C25.1661072,21.1622945 25.9694518,20.3598101 26.957973,20.3598101 C27.9475809,20.3598101 28.7497519,21.1622945 28.7497519,22.1502716 M25.1660637,9.02446308 C25.1660637,11.1970311 23.4010181,12.9620797 21.2259325,12.9620797 C19.0508034,12.9620797 17.2857143,11.196727 17.2857143,9.02446308 C17.2857143,6.84785508 19.0507599,5.08654241 21.2259325,5.08654241 C23.4010181,5.0868465 25.1660637,6.84815917 25.1660637,9.02446308 M46.2773221,31.2843796 C46.2773221,33.9650328 44.0994979,36.1428571 41.4157418,36.1428571 C38.7318988,36.1428571 36.5540746,33.9646418 36.5540746,31.2843796 C36.5540746,28.5987308 38.7318988,26.4255546 41.4157418,26.4255546 C44.0994979,26.4259021 46.2773221,28.5991217 46.2773221,31.2843796 M46.2093805,15.9911726 C46.2093805,20.4763187 42.5658795,24.1194057 38.075826,24.1194057 C33.586555,24.1194057 29.9424019,20.4763621 29.9424019,15.9911726 C29.9424019,11.4985546 33.586555,7.86280907 38.075826,7.86280907 C42.5658795,7.86280907 46.2093805,11.4985546 46.2093805,15.9911726 M48.5191756,2.92674605 C48.5191756,4.54170622 47.207291,5.85340522 45.5905605,5.85340522 C43.9741342,5.85340522 42.6620322,4.54166277 42.6620322,2.92674605 C42.6620322,1.30913599 43.9741342,0 45.5905605,0 C47.207291,0 48.5191756,1.30909255 48.5191756,2.92674605 M69.1428571,24.5886981 C69.1428571,25.9341508 68.0498807,27.0269943 66.7029603,27.0269943 C65.3562572,27.0269943 64.263107,25.9341508 64.263107,24.5886981 C64.263107,23.2409866 65.3562572,22.1503585 66.7029603,22.1503585 C68.0498807,22.1503585 69.1428571,23.24103 69.1428571,24.5886981" id="形状"></path>
                            </g>
                        </g>
                    </g>
                </g>
            </g>
        </g>
    </g>
</svg>