<?xml version="1.0" encoding="UTF-8"?>
<svg width="110px" height="110px" viewBox="0 0 110 110" version="1.1" xmlns="http://www.w3.org/2000/svg" xmlns:xlink="http://www.w3.org/1999/xlink">
    <!-- Generator: Sketch 52.5 (67469) - http://www.bohemiancoding.com/sketch -->
    <title>分组</title>
    <desc>Created with Sketch.</desc>
    <g id="1.0-" stroke="none" stroke-width="1" fill="none" fill-rule="evenodd">
        <g id="数据监控" transform="translate(-41.000000, -215.000000)">
            <g id="Group-13" transform="translate(-1.000000, 0.000000)">
                <g id="Group-12">
                    <g id="导航-/iOS/常规">
                        <g id="Group-2" transform="translate(0.000000, 204.000000)">
                            <g id="分组" transform="translate(42.000000, 11.000000)">
                                <rect id="矩形" fill="#FFFFFF" x="0" y="0" width="110" height="110"></rect>
                                <g id="dongliyongdian" transform="translate(2.000000, 12.000000)" fill="#55CB55">
                                    <path d="M15.4687278,63.9206875 C12.2639715,60.795356 9.30602252,57.8827106 6.21363185,54.9126494 C7.06548475,52.0426828 11.0151012,50.5367843 8.94848497,45.7873038 C6.87217392,41.1350882 3.03795992,43.3557961 0.331023019,41.7257522 L0,29.2646289 C2.8239746,27.5821208 6.66753297,29.3396114 8.43361212,24.5835286 C10.1994577,19.8274458 6.27308526,18.5832787 5.17127141,15.6689828 C8.00797773,12.6479901 10.9044877,9.61308557 14.0475714,6.3283572 C14.9928675,6.97195687 16.2408034,7.66825662 17.1822451,8.62805606 C18.8134154,10.1412641 20.1969609,10.0429379 22.2749073,9.31763563 C25.6306914,8.14397104 26.649107,6.09692546 26.4086072,2.94023329 C26.2494032,1.03442826 27.0599073,0.233907668 29.1088863,0.227187592 C32.5457324,0.292384609 35.9754536,0.0899554852 39.2999341,0 C40.9226945,3.00991036 39.3714183,6.7745973 43.9404473,8.62180759 C48.6553648,10.5137008 49.8839111,6.39284691 52.5705241,5.44412979 C55.6267054,8.41501622 58.6196957,11.2782628 61.8245687,14.4033585 C61.2789764,17.0093537 57.0158575,18.5118331 59.142044,23.2233509 C61.2150846,27.7660401 64.9025924,25.9142319 67.8119509,27.4415876 L68.1428571,39.9027109 C65.4165308,41.630963 61.5193594,39.6684496 59.7052737,44.4254756 C57.891188,49.1830911 61.7570559,50.4287908 63.1942146,54.1614097 C61.9460451,55.2778943 60.2822864,56.6248675 58.840806,58.1602401 C57.3987416,59.6956128 56.1555948,61.4446147 55.0710679,62.8122199 C51.3096229,61.8800084 49.864288,57.8311896 45.3018,59.8649129 C40.7394287,61.8984003 42.538213,65.6333772 41.0787449,68.7752143 C37.4894692,68.8722436 33.7586269,69.0828076 30.00676,68.9652643 C29.3430786,68.934729 28.1709487,67.4578333 28.1489895,66.6309037 C28.0129126,63.3256613 26.9794292,61.1756917 23.4257789,60.3473474 C21.5690597,59.8744625 20.2240596,59.6066005 18.8290673,61.0922205 C17.9275727,62.1022441 16.7193502,62.9012321 15.4687278,63.9206875 Z M34.3781564,50.2207025 C43.08766,50.0337179 49.9712807,42.8154741 49.7405924,34.1353076 C49.5138755,25.600626 42.3626565,18.6649813 33.8563921,18.7857078 C25.3391481,18.9552437 18.4530746,26.0763404 18.6328362,34.6606567 C18.7726509,43.5503262 25.7165425,50.4066261 34.3781564,50.2207025 Z" id="形状" fill-rule="nonzero"></path>
                                    <path d="M75.7740732,40.1107033 C73.9311432,38.3381064 72.202314,36.6720093 70.373261,34.9484646 C70.8366622,33.2960398 73.139791,32.3641671 71.8862238,29.6770877 C70.6328938,26.9897685 68.4557266,28.3375658 66.9014883,27.395379 L66.6285714,20.2498227 C68.2549234,19.233038 70.48582,20.2602567 71.4696727,17.4856269 C72.4532883,14.7109971 70.1876396,14.0567673 69.5611526,12.3972665 C71.2086167,10.6492557 72.8051981,8.85351185 74.6053107,6.93855554 C75.1469931,7.33828935 75.8844973,7.73046736 76.4305681,8.24137824 C77.344798,9.09721387 78.1743418,9.01530029 79.3581677,8.59757672 C81.2537596,7.8922559 81.832685,6.70576734 81.7139584,4.87800161 C81.6229862,3.77978306 82.0693078,3.27942629 83.2208722,3.29633672 C85.2055387,3.33027753 87.1698047,3.14210398 89.1016907,3.06666667 C90.0479447,4.76310661 89.2012027,6.9627818 91.8371454,8.01122853 C94.5833934,9.06771071 95.2260113,6.66570997 96.7610351,6.13525016 C98.5387308,7.79918853 100.268034,9.4772789 102.159594,11.2357238 C101.849078,12.7213231 99.3870147,13.6591923 100.689448,16.3444727 C101.939102,18.932848 104.028262,17.8484216 105.727083,18.7229667 L106,25.868523 C104.471144,26.8814697 102.2017,25.8062782 101.20397,28.5320957 C100.220235,31.3064856 102.424801,31.963234 103.291232,34.133286 C102.581838,34.792433 101.632144,35.5722317 100.834624,36.4948695 C99.9882383,37.4193064 99.2909422,38.3998715 98.6976654,39.2155299 C96.5481339,38.7175717 95.6756539,36.3869306 93.0646189,37.5909292 C90.4537026,38.7944481 91.5266299,40.9191658 90.7144027,42.7339788 C88.6361546,42.8151728 86.5107005,42.947458 84.3673365,42.9321066 C83.9513785,42.9482975 83.2939347,42.0826273 83.2754318,41.6003803 C83.1544518,39.7109695 82.5316414,38.4723104 80.5290652,37.9688354 C79.4774873,37.6878344 78.6891003,37.5700611 77.8899201,38.4434068 C77.1418599,39.054581 76.4735042,39.501688 75.7740732,40.1107033 Z M86.5620577,32.1124296 C91.552012,31.9671918 95.5036724,27.7148781 95.3129508,22.7204245 C95.1238897,17.7753829 90.9698842,13.8395702 86.077307,13.9687372 C81.1850856,14.110257 77.2905942,18.2613479 77.4184536,23.2086682 C77.5048002,28.3556755 81.5597682,32.258267 86.5620577,32.1124296 Z" id="形状" fill-rule="nonzero"></path>
                                    <path d="M92.1793135,59.7927127 C92.0331401,59.4846477 91.5714492,58.7583578 90.4341101,58.6678562 C90.3986043,58.6653389 90.3639054,58.6642601 90.3280538,58.6642601 L78.6152828,58.5862249 L81.6290123,43.0103672 C81.6381194,42.9676935 81.6444597,42.9229822 81.6490708,42.879949 C81.7548966,41.9046899 81.5657243,41.1317706 81.0867416,40.5816889 C80.6861483,40.1197115 80.1156344,39.8666667 79.4803337,39.8666667 C78.7530408,39.8666667 78.1207375,40.2008631 77.9443612,40.302992 C77.7872255,40.3942414 77.6471596,40.514143 77.5308567,40.6569671 L54.9953811,68.3844871 C54.9603198,68.427463 54.9277534,68.472574 54.8978554,68.5195802 C54.5507514,69.0539589 54.3252663,69.9046736 54.7324306,70.6876619 C54.9405085,71.0877867 55.4773611,71.7583373 56.7332066,71.7583373 C56.7932668,71.7583373 56.8552867,71.7562995 56.9219178,71.7536624 L67.291462,71.7462305 L61.5017076,89.1791084 C61.4681366,89.2789963 61.4448356,89.3823009 61.4321945,89.4872932 C61.4022221,89.7339849 61.3510384,90.5911724 61.9506026,91.289413 C62.3441639,91.7465957 62.9098362,92 63.5459437,92 C63.9358161,92 64.3480524,91.9077004 64.8065157,91.7198647 C65.0106411,91.6354 65.1946819,91.5058294 65.3459044,91.3401177 L91.78483,62.2484814 C91.8405095,62.1873479 91.8913474,62.12106 91.937113,62.0502171 C92.1142963,61.7765548 92.657374,60.8047718 92.1793135,59.7927127 Z" id="路径"></path>
                                </g>
                            </g>
                        </g>
                    </g>
                </g>
            </g>
        </g>
    </g>
</svg>