<?xml version="1.0" encoding="UTF-8"?>
<svg width="113px" height="113px" viewBox="0 0 113 113" version="1.1" xmlns="http://www.w3.org/2000/svg" xmlns:xlink="http://www.w3.org/1999/xlink">
    <!-- Generator: Sketch 52.5 (67469) - http://www.bohemiancoding.com/sketch -->
    <title>断路安全</title>
    <desc>Created with Sketch.</desc>
    <g id="1.0-" stroke="none" stroke-width="1" fill="none" fill-rule="evenodd">
        <g id="切图" transform="translate(-1469.000000, -19.000000)">
            <g id="断路安全" transform="translate(1469.000000, 19.000000)">
                <rect id="Rectangle-16-Copy-4" fill="#FFF7E9" x="0" y="0" width="113" height="113" rx="30"></rect>
                <g id="duanluzuoye" transform="translate(28.000000, 23.000000)" fill="#F5A623" fill-rule="nonzero">
                    <path d="M53.6650899,68 L4.33491012,68 C1.9205298,68 0,65.9843557 0,63.5767806 L0,62.6249485 C0,60.1613833 1.97540208,58.2017291 4.33491012,58.2017291 L53.6650899,58.2017291 C56.0794702,58.2017291 58,60.2173734 58,62.6249485 L58,63.5767806 C58,65.9843557 56.0245979,68 53.6650899,68 Z M41.0993377,24.383697 L16.9006623,24.383697 L14.3765374,30.6545904 L43.6234626,30.6545904 L41.0993377,24.383697 Z M32.3746452,2.77151091 C30.8930937,-0.92383697 27.1617786,-0.92383697 25.6253548,2.77151091 L19.589404,17.7768629 L38.4654683,17.7768629 L32.3746452,2.77151091 Z M51.1958373,49.2993001 L46.3122044,37.3174146 L11.6329234,37.3174146 L6.74929044,49.2993001 C5.26773888,52.994648 7.1333964,57.5858378 10.0964995,57.5858378 L47.7388836,57.5858378 C50.8117313,57.5858378 52.6773888,52.994648 51.1958373,49.2993001 Z" id="形状"></path>
                </g>
            </g>
        </g>
    </g>
</svg>