<?xml version="1.0" encoding="UTF-8"?>
<svg width="113px" height="113px" viewBox="0 0 113 113" version="1.1" xmlns="http://www.w3.org/2000/svg" xmlns:xlink="http://www.w3.org/1999/xlink">
    <!-- Generator: Sketch 52.5 (67469) - http://www.bohemiancoding.com/sketch -->
    <title>盲板抽堵安全</title>
    <desc>Created with Sketch.</desc>
    <g id="1.0-" stroke="none" stroke-width="1" fill="none" fill-rule="evenodd">
        <g id="切图" transform="translate(-787.000000, -22.000000)" fill="#6096F8">
            <g id="盲板抽堵安全" transform="translate(787.000000, 22.000000)">
                <rect id="Rectangle-16-Copy-7" opacity="0.1" x="0" y="0" width="113" height="113" rx="30"></rect>
                <g id="mangbanchouduanquanzuoyezheng" transform="translate(25.000000, 25.000000)">
                    <path d="M27.7307692,12.4384615 L2.20769231,12.4384615 C0.969230769,12.4384615 0,11.4692308 0,10.3384615 L0,2.1 C0,0.915384615 0.969230769,0 2.20769231,0 L27.7307692,0 C28.9692308,0 29.9384615,0.969230769 29.9384615,2.1 L29.9384615,10.3384615 C29.9384615,11.5230769 28.9692308,12.4384615 27.7307692,12.4384615 Z M4.41538462,8.23846154 L25.5230769,8.23846154 L25.5230769,4.25384615 L4.41538462,4.25384615 L4.41538462,8.23846154 Z M60.7923077,63 L52.1769231,63 C50.9384615,63 49.9692308,62.0307692 49.9692308,60.9 L49.9692308,36.5615385 C49.9692308,35.3769231 50.9384615,34.4615385 52.1769231,34.4615385 L60.7923077,34.4615385 C62.0307692,34.4615385 63,35.4307692 63,36.5615385 L63,60.9 C63,62.0307692 62.0307692,63 60.7923077,63 Z M54.3846154,58.7461538 L58.5846154,58.7461538 L58.5846154,38.6615385 L54.3846154,38.6615385 L54.3846154,58.7461538 Z" id="形状" fill-rule="nonzero"></path>
                    <path d="M53,58 L32.5062288,58 C17.3397508,58 5,46.3041475 5,31.8467742 L5,11 L9.45753114,11 L9.45753114,31.8467742 C9.45753114,43.921659 19.785957,53.7223502 32.5062288,53.7223502 L53,53.7223502 L53,58 Z" id="路径"></path>
                    <path d="M51.8826538,44 L32.92,44 C27.4266667,44 23,39.7624398 23,34.6243981 L23,11 L27.3733333,11 L27.3733333,34.5714286 C27.3733333,37.4317817 29.8266667,39.7624398 32.8666667,39.7624398 L51.8826538,39.7500473 C51.9359871,39.8030168 51,44 51,44 L51.8826538,44 Z" id="路径"></path>
                    <path d="M7.70133138,11 C8.55322374,11 14.9617671,11 26.9269614,11 L26.9269614,36.5376386 C28.3248671,40.9542895 30.7084858,43.1626149 34.0778177,43.1626149 C37.4471496,43.1626149 43.2673205,43.1626149 51.5383303,43.1626149 L51.5383303,56.5376386 L31.6423791,56.5376386 C17.7386257,56.871035 9.75827649,51.1210508 7.70133138,39.2876859 C4.61591371,21.5376386 6.42349283,11 7.70133138,11 Z" id="路径-2"></path>
                </g>
            </g>
        </g>
    </g>
</svg>