<?xml version="1.0" encoding="UTF-8"?>
<svg width="111px" height="111px" viewBox="0 0 111 111" version="1.1" xmlns="http://www.w3.org/2000/svg" xmlns:xlink="http://www.w3.org/1999/xlink">
    <!-- Generator: Sketch 52.5 (67469) - http://www.bohemiancoding.com/sketch -->
    <title>分组 4</title>
    <desc>Created with Sketch.</desc>
    <g id="1.0-" stroke="none" stroke-width="1" fill="none" fill-rule="evenodd">
        <g id="数据监控" transform="translate(-600.000000, -2175.000000)">
            <g id="Group-Copy" transform="translate(375.500000, 2225.000000) rotate(-90.000000) translate(-375.500000, -2225.000000) translate(228.000000, 1850.000000)">
                <g id="分组-4" transform="translate(142.000000, 655.000000) rotate(-270.000000) translate(-142.000000, -655.000000) translate(87.000000, 600.000000)">
                    <rect id="矩形" fill="#FFFFFF" x="0" y="0" width="110" height="110"></rect>
                    <g id="mc-hx-t" transform="translate(6.000000, 5.000000)" fill="#06B6A8">
                        <path d="M58.1400268,0.961630895 L21.9010217,22.4276644 C18.5669461,24.4065644 17.4229005,28.7780327 19.3514345,32.1991817 C21.2799684,35.6203308 25.5401762,36.7942545 28.8742518,34.8153546 L65.1132568,13.3493211 C68.4473325,11.3704211 69.591378,6.99895282 67.6628441,3.57780373 C65.7343101,0.156654639 61.4741024,-1.01726907 58.1400268,0.961630895 Z M20.6916021,39.142102 C20.6916021,39.142102 16.3333333,44.5868719 16.3333333,48.5334916 C16.3333333,52.4801113 18.2836586,53.9 20.6916021,53.9 C23.0995456,53.9 25.0498709,52.4801113 25.0498709,48.5334916 C25.0498709,44.5868719 20.6916021,39.142102 20.6916021,39.142102 Z" id="形状" fill-rule="nonzero"></path>
                        <path d="M45.7333333,36.75 C45.7333333,38.1030976 46.4646016,39.2 47.3666667,39.2 C48.2687318,39.2 49,38.1030976 49,36.75 C49,35.3969024 48.2687318,34.3 47.3666667,34.3 C46.4646016,34.3 45.7333333,35.3969024 45.7333333,36.75 Z" id="路径"></path>
                        <path d="M24.5,75.95 C24.5,77.3030976 25.2312682,78.4 26.1333333,78.4 C27.0353984,78.4 27.7666667,77.3030976 27.7666667,75.95 C27.7666667,74.5969024 27.0353984,73.5 26.1333333,73.5 C25.2312682,73.5 24.5,74.5969024 24.5,75.95 Z" id="路径"></path>
                        <path d="M13.0666667,66.15 C13.0666667,67.5030976 13.7979349,68.6 14.7,68.6 C15.6020651,68.6 16.3333333,67.5030976 16.3333333,66.15 C16.3333333,64.7969024 15.6020651,63.7 14.7,63.7 C13.7979349,63.7 13.0666667,64.7969024 13.0666667,66.15 Z" id="路径"></path>
                        <path d="M58.8,46.55 C58.8,47.9030976 59.5312682,49 60.4333333,49 C61.3353984,49 62.0666667,47.9030976 62.0666667,46.55 C62.0666667,45.1969024 61.3353984,44.1 60.4333333,44.1 C59.5312682,44.1 58.8,45.1969024 58.8,46.55 Z" id="路径"></path>
                        <path d="M95.6588759,73.3196209 L58.9258676,9.8 L28.6320681,27.2624387 L65.3650765,90.7820597 C70.1972163,99.1312882 80.8891455,101.990763 89.2633968,97.1776779 C97.6157832,92.3427652 100.480083,81.6688495 95.6588759,73.3196209 Z M64.0969131,65.8435144 C63.5940207,63.9772162 64.7091299,62.067262 66.5676452,61.5652169 C68.437093,61.0631717 70.3502705,62.1764022 70.8531629,64.0317863 C71.3560552,65.8980845 70.2409461,67.8080387 68.3824307,68.3100838 C66.512983,68.8121289 64.5998055,67.7098125 64.0969131,65.8435144 Z M76.3193843,84.3864415 C75.3901267,84.6374641 74.4280717,84.0808488 74.1766255,83.1531568 C73.9251793,82.2254647 74.4827339,81.2650306 75.4119916,81.014008 C76.3412492,80.7629855 77.3033042,81.3196007 77.5547504,82.2472928 C77.8061966,83.1749848 77.248642,84.1354189 76.3193843,84.3864415 Z M58.1168668,47.3333293 C52.6615778,46.4165512 47.2390861,43.9172397 42.3194867,36.9868343 L38.1870233,29.8163204 L56.3676759,19.3388572 L69.4319453,41.8217471 C72.3181102,46.8312842 61.9760192,47.9881707 58.1168668,47.3333293 Z M85.5245013,78.1981898 C83.6550536,78.7002349 81.7418761,77.5870044 81.2389837,75.7316203 C80.7360913,73.8653222 81.8512005,71.9553679 83.7097158,71.4533228 C85.5791635,70.9512777 87.492341,72.0645082 87.9952334,73.9198923 C88.4981258,75.7861904 87.3939491,77.6961447 85.5245013,78.1981898 Z M38.4821992,68.3100838 C36.5471568,68.3100838 34.9838175,69.8707893 34.9838175,71.8025716 L34.9838175,83.0003604 C34.9838175,83.0003604 35.7490885,87.5187665 30.3921914,85.8816628 C25.0352944,84.2445592 22.6301569,81.0794922 15.3054202,83.3714372 C11.8070384,84.4628397 6.9967635,81.472397 6.9967635,81.472397 L6.9967635,71.8025716 C6.9967635,69.8707893 5.43342415,68.3100838 3.49838175,68.3100838 C1.56333934,68.3100838 0,69.8707893 0,71.8025716 L0,92.6483578 C0,96.5010084 3.13761113,99.6333333 6.9967635,99.6333333 L34.9838175,99.6333333 C38.8429699,99.6333333 41.980581,96.5010084 41.980581,92.6483578 L41.980581,71.8025716 C41.980581,69.8707893 40.4172416,68.3100838 38.4821992,68.3100838 Z M12.2443361,89.2650103 C11.2822811,89.2650103 10.4951452,88.4792006 10.4951452,87.5187665 C10.4951452,86.5583323 11.2822811,85.7725226 12.2443361,85.7725226 C13.2063911,85.7725226 13.993527,86.5583323 13.993527,87.5187665 C13.993527,88.4792006 13.2063911,89.2650103 12.2443361,89.2650103 Z M25.2539432,93.194059 C24.2918883,93.194059 23.5047524,92.4082493 23.5047524,91.4478152 C23.5047524,90.487381 24.2918883,89.7015713 25.2539432,89.7015713 C26.2159982,89.7015713 27.0031341,90.487381 27.0031341,91.4478152 C27.0031341,92.4082493 26.2159982,93.194059 25.2539432,93.194059 Z" id="形状" fill-rule="nonzero"></path>
                    </g>
                </g>
            </g>
        </g>
    </g>
</svg>