<?xml version="1.0" encoding="UTF-8"?>
<svg width="113px" height="113px" viewBox="0 0 113 113" version="1.1" xmlns="http://www.w3.org/2000/svg" xmlns:xlink="http://www.w3.org/1999/xlink">
    <!-- Generator: Sketch 52.5 (67469) - http://www.bohemiancoding.com/sketch -->
    <title>受限空间安全</title>
    <desc>Created with Sketch.</desc>
    <g id="1.0-" stroke="none" stroke-width="1" fill="none" fill-rule="evenodd">
        <g id="切图" transform="translate(-634.000000, -19.000000)">
            <g id="受限空间安全" transform="translate(634.000000, 19.000000)">
                <g id="分组-11">
                    <rect id="Rectangle-16-Copy-6" fill-opacity="0.1" fill="#4EA9E8" x="0" y="0" width="113" height="113" rx="30"></rect>
                    <g id="shouxiankongjian" transform="translate(24.000000, 25.000000)" fill="#4DA8E5" fill-rule="nonzero">
                        <path d="M66.9974807,63.8083871 C66.9969569,63.8623226 66.9716821,63.9163871 66.9499433,64 L0.0355569303,64 C0.0233779158,63.8201291 0.00242477273,63.6512258 0.00242477273,63.4828388 C0.000460415563,58.3596135 -0.00359925591,53.2366463 0.00700827278,48.1138081 C0.00831784423,47.4345824 0.105095174,46.7553566 0.124869703,46.0756148 C0.135346274,45.7150987 0.294459205,45.5310987 0.640055109,45.4898084 C2.07220244,45.3181955 3.5030402,45.1352278 4.9383305,45.0009052 C5.11407499,44.9845181 5.38816829,45.1938084 5.49411262,45.3700665 C7.02487159,47.915117 8.53998619,50.469271 10.0393732,53.0323882 C10.2707745,53.4287753 10.5085926,53.5935495 11.0045273,53.5784527 C16.5171683,53.4158721 22.0311189,53.2892914 27.5446766,53.1348399 C27.943703,53.123614 28.1441984,53.2447753 28.3202048,53.5870979 C29.1242817,55.1492913 29.9620145,56.6940653 30.7689724,58.2548393 C30.9307045,58.5673554 31.1112944,58.709807 31.4867486,58.7144522 C33.2059539,58.7361296 34.9252903,58.8047747 36.6446266,58.8184522 C36.8580868,58.8202586 37.1911108,58.6450328 37.2677207,58.4674845 C37.7055105,57.4523878 38.4790743,56.8029685 39.3943338,56.2091621 C42.6947158,54.0689043 45.9607869,51.8775497 49.230263,49.6914854 C49.526619,49.4935499 49.7550083,49.4609048 50.0851512,49.6043886 C51.3855557,50.1691627 52.7053418,50.6899369 54.0044367,51.2574207 C54.3370678,51.402711 54.5665047,51.3696787 54.8591939,51.1716143 C57.5439464,49.3526467 60.2400921,47.548905 62.978144,45.7096793 C64.2670242,46.8450341 65.5231652,47.9428404 66.7641151,49.0570338 C66.8904887,49.1705822 66.9919805,49.3830983 66.9922424,49.549808 C67.0032428,54.3025817 67.0000998,59.0554844 66.9974807,63.8083871 Z" id="路径"></path>
                        <path d="M9.72511117,39 C9.66833974,38.4243622 9.72098234,37.9830131 9.56976389,37.6369356 C9.30371232,37.02669 8.99508217,36.3951987 8.56000656,35.9122936 C6.83209061,33.9931 6.49120397,31.1733031 7.7805606,28.8553853 C9.0359834,26.5985323 11.4566398,25.5383859 14,26.1895194 C12.5826496,30.4370532 11.1819435,34.6347464 9.72511117,39 Z" id="路径"></path>
                        <path d="M14.2336743,27.0001282 C16.2760409,27.5801893 17.4440508,28.9463589 17.8621672,30.980291 C18.2845195,33.0335842 17.7517824,34.7904359 16.0486683,36.0355671 C14.483099,37.1803031 12.8009155,37.2903146 11,36.448944 L14.2336743,27 L14.2336743,27.0001282 Z" id="路径"></path>
                        <path d="M6.53987178,43.4255563 C7.72334312,43.3867639 8.90707586,43.3569745 10.0898937,43.3063987 C10.3199224,43.2966013 10.5589692,43.2396704 10.772922,43.1514938 C13.2019463,42.1558655 15.6301864,41.1581188 18.0481013,40.1341575 C18.2913305,40.0311523 18.5359974,39.7921751 18.6568931,39.552271 C19.572564,37.7394861 20.4487641,35.9057824 21.3597299,34.0907467 C21.5355189,33.7412176 21.5152607,33.5019756 21.2916362,33.1746893 C20.3244702,31.763598 19.3936383,30.3273512 18.4489524,28.9002399 C17.5683086,27.5687194 17.6179739,26.2536163 18.613632,24.9999455 C20.9876324,22.0100155 23.36673,19.0241898 25.7449127,16.0374373 C25.8686347,15.8817057 25.9962371,15.729179 26.1275968,15.5800044 C26.7139085,14.912854 27.2904178,14.8079952 27.9984095,15.3344072 C30.5254927,17.215693 33.0417353,19.1118763 35.5470092,21.0228606 C35.9462919,21.3269774 36.3412616,21.4690398 36.8417047,21.4734089 C38.6568399,21.4892966 40.472498,21.5921693 42.2865877,21.5684702 C43.2090549,21.5558925 43.9553411,21.8307494 44.4079487,22.5993162 C44.9631542,23.5409264 45.6561156,25.236672 45.7558382,25.4645279 C47.6581491,29.8068971 49.5541865,34.1523115 51.4678682,38.4900468 C51.656727,38.9184848 51.8991719,39.3458635 52.2040906,39.6951278 C54.3213999,42.1209126 56.4627577,44.5253814 58.5947052,46.9376616 C58.7235735,47.0830339 58.8440772,47.2358205 59,47.4225008 C58.063156,48.0090212 57.1636916,48.572372 56.2488049,49.1453879 C53.3478297,47.1114994 50.4595323,45.0913802 47.5806452,43.058286 C47.3949232,42.9269478 47.2605655,42.7094189 47.1277762,42.5141328 C45.5825325,40.2444445 44.0429089,37.9707843 42.5002791,35.6992425 C42.4009486,35.5524138 42.2905087,35.4137937 42.161771,35.2395588 C42.064793,35.3773844 41.9795779,35.4826404 41.9121376,35.5983557 C40.6818764,37.691823 39.4627245,39.7933666 38.2149496,41.8767718 C38.0024345,42.231332 38.0143281,42.4969211 38.1841049,42.8561152 C39.757318,46.1885572 41.3127561,49.5302671 42.8735529,52.8690642 C42.9315829,52.9935177 42.9883058,53.1187656 43.0648949,53.2865131 C42.1943149,53.8567486 41.3421632,54.4158628 40.45041,55 C39.4063936,53.6177714 38.3890395,52.273276 37.3741687,50.9274566 C35.3859892,48.291822 33.4082654,45.6475815 31.4006118,43.0270402 C31.0997448,42.6348792 31.0932099,42.3324836 31.273704,41.897823 C32.7159576,38.4181551 34.1354697,34.9286897 35.5608632,31.4416076 C35.6334007,31.2637979 35.6918227,31.0796331 35.8017398,30.7736628 C35.2498017,31.067585 34.8188901,31.3317177 34.3623616,31.5353449 C31.8568789,32.6506604 29.3415939,33.7432036 26.8397708,34.8677869 C26.5583777,34.9944912 26.269927,35.2275106 26.1085149,35.4893926 C24.7819291,37.64085 23.477562,39.8066064 22.1852192,41.9795122 C21.9668226,42.3465177 21.7050343,42.5561027 21.2894143,42.6666546 C17.9919011,43.5399477 14.7009229,44.4364103 11.2761097,45.361206 C11.0029507,44.009164 10.0453257,44.0590778 9.00562223,44.0916475 C6.34330183,44.1755875 3.67862887,44.1824721 1.01500148,44.2196758 C0.857118173,44.2215294 0.68694924,44.2588654 0.544488306,44.2113348 C0.351708601,44.147122 0.180624781,44.016181 0,43.9141027 C0.168600556,43.8171878 0.33380296,43.6434824 0.506193761,43.6359358 C2.51685341,43.5512014 4.52842795,43.491093 6.53987178,43.4254239 L6.53987178,43.4255563 Z" id="路径"></path>
                        <path d="M66.588165,15.0450072 C65.3805768,16.0922353 64.1949946,17.1642761 62.9663171,18.259432 C60.2417444,16.4093159 57.5597431,14.5965496 54.8905787,12.7644555 C54.5610102,12.537876 54.3051885,12.5037911 53.9329176,12.6701671 C52.6538093,13.24086 51.3517779,13.7606216 50.0655961,14.3176022 C49.7695608,14.4454531 49.5497612,14.4565535 49.2607993,14.2607941 C45.6468107,11.8163477 42.0068863,9.40859809 38.4154279,6.93215634 C37.9354839,6.60136338 37.6520235,5.96263129 37.3354229,5.43189991 C37.1441789,5.11064026 36.9703564,4.94896569 36.5612775,4.9664652 C34.8819976,5.03698561 33.2010148,5.07616362 31.5205559,5.09679737 C31.1347931,5.10136813 30.9218049,5.21433138 30.7437907,5.56693344 C29.9431855,7.14998606 29.1002708,8.71162137 28.2973078,10.2931069 C28.1189007,10.644403 27.9123309,10.7559297 27.5170059,10.7444375 C22.0220142,10.5896844 16.5259746,10.4645759 11.0308519,10.2941516 C10.4772921,10.2770439 10.2306397,10.4724115 9.97979561,10.9066344 C8.51180105,13.4515071 7.00974933,15.9767908 5.54306467,18.5220552 C5.32496786,18.8998618 5.1087049,19.0476934 4.66321105,18.9867064 C3.11819492,18.7751451 1.56793922,18.6039372 0,18.4144463 L0,0 L66.9912184,0 L66.9912184,0.592893821 C66.9912184,5.10815899 66.9865028,9.62316297 66.9999947,14.1384281 C67.0009116,14.5289023 66.8831524,14.7895666 66.588165,15.0450072 Z" id="路径"></path>
                    </g>
                </g>
            </g>
        </g>
    </g>
</svg>