<?xml version="1.0" encoding="UTF-8"?>
<svg width="113px" height="113px" viewBox="0 0 113 113" version="1.1" xmlns="http://www.w3.org/2000/svg" xmlns:xlink="http://www.w3.org/1999/xlink">
    <!-- Generator: Sketch 52.5 (67469) - http://www.bohemiancoding.com/sketch -->
    <title>违章</title>
    <desc>Created with Sketch.</desc>
    <g id="1.0-" stroke="none" stroke-width="1" fill="none" fill-rule="evenodd">
        <g id="切图" transform="translate(-1749.000000, -22.000000)">
            <g id="违章" transform="translate(1749.000000, 22.000000)">
                <rect id="Rectangle-16-Copy-5" fill="#FDF0ED" x="0" y="0" width="113" height="113" rx="30"></rect>
                <g id="weizhangjubao" transform="translate(27.000000, 27.000000)" fill="#F36C52" fill-rule="nonzero">
                    <path d="M30,17.5714748 C38.5713866,17.5714748 45.4285546,24.4286428 45.4285546,32.5714454 L45.4285546,51.0000294 L14.5714454,51.0000294 L14.5714454,32.5714454 C15.0000294,24.428584 21.8571386,17.5714748 30,17.5714748 Z M12.4285841,26.5714454 C12,27.8571387 10.7143067,28.7143067 9.42855459,28.2857227 L2.14286132,27.0000294 C1.28575208,27.0000294 0.428583986,26.1429202 0,24.857168 L0,24.0000588 C0.428584045,22.7143656 1.71427733,21.8571975 3.00002941,22.2857815 L10.2857227,23.5714748 C12,24.0000588 12.857168,25.2857521 12.4285841,26.5715042 L12.4285841,26.5714454 Z M10.7143067,10.2857815 C10.2857227,9.85719747 10.2857227,9.42867227 10.2857227,9.00008829 C10.2857227,8.14297904 10.2857227,7.28581095 11.1428319,6.85722691 C11.9999412,6.00011766 13.7142773,6.00011766 14.5713865,7.28581095 L19.2856344,12.8572269 C20.1427437,13.7143362 20.1427437,15.4286723 18.8570504,16.2857815 C17.9999411,17.1428908 16.285605,17.1428908 15.4284958,15.8571975 L10.7142479,10.2857815 L10.7143067,10.2857815 Z M30.428584,12.428584 C29.1428908,12.428584 28.2857227,11.5714748 27.8571387,10.2857227 L27.8571387,2.57144536 C27.8571387,1.28575208 29.142832,0 30.428584,0 C31.7143361,0 33.0000294,1.28569329 33.0000294,2.57144536 L33.0000294,9.85713862 C33.0000294,11.571416 32.1429202,12.428584 30.428584,12.428584 Z M42,17.1428907 C41.571416,16.7143067 41.1428908,16.2857815 41.1428908,15.8571975 C41.1428908,15.0000883 41.1428908,14.5715042 41.5714748,13.7143361 L46.2857227,8.1429202 C47.142832,7.28581095 48.8571681,6.85722691 49.7142773,7.71433615 C50.5713866,8.57144539 50.9999706,10.2857815 50.1428614,11.1428908 L45.4286135,16.7143067 C44.5715042,17.571416 43.2857521,18 42.0000589,17.1428907 L42,17.1428907 Z M60,25.7143361 C60,27.0000294 59.1428908,28.2857815 57.8571387,28.2857815 L50.5714454,29.5714748 C49.2857521,29.5714748 48,28.7143655 47.571416,27.4286135 C47.571416,26.1429202 48.4285252,24.8571681 49.7142773,24.857168 L56.9999706,23.5714748 C58.7142479,23.5714748 60,24.428584 60,25.7143361 Z M50.9999706,56.5714453 C50.9999706,58.2857227 49.2856933,59.9999999 47.571416,60 L12.4285841,60 C10.2857227,60 9.00002945,58.2857227 9.00002939,56.5714453 C9.00002933,54.857168 10.7143067,53.1428907 12.4285841,53.1428907 L47.571416,53.1428907 C49.2856933,53.1428907 50.9999706,54.8571681 50.9999706,56.5714453 Z" id="形状"></path>
                </g>
            </g>
        </g>
    </g>
</svg>