<?xml version="1.0" encoding="UTF-8"?>
<svg width="113px" height="113px" viewBox="0 0 113 113" version="1.1" xmlns="http://www.w3.org/2000/svg" xmlns:xlink="http://www.w3.org/1999/xlink">
    <!-- Generator: Sketch 52.5 (67469) - http://www.bohemiancoding.com/sketch -->
    <title>隐患</title>
    <desc>Created with Sketch.</desc>
    <g id="1.0-" stroke="none" stroke-width="1" fill="none" fill-rule="evenodd">
        <g id="切图" transform="translate(-1609.000000, -22.000000)">
            <g id="隐患" transform="translate(1609.000000, 22.000000)">
                <rect id="Rectangle-16-Copy-4" fill="#E7F8F4" x="0" y="0" width="113" height="113" rx="30"></rect>
                <g id="yinhuan" transform="translate(29.000000, 27.000000)" fill="#17C195" fill-rule="nonzero">
                    <path d="M33.9931507,4.87886945 C31.7191781,3.50605653 29.5547945,1.87752355 27.5,0 C26.1164384,1.24495289 24.6917808,2.38223419 23.2191781,3.4051144 C16.5890411,8.08882907 8.63013699,11.076716 0,11.7160162 L0,24.4751009 C0,41.0363392 11.2465753,55.5652759 27.5,60 C43.7534247,55.5720054 55,41.0430686 55,24.4818304 L55,11.7227456 C47.3082192,11.1507402 40.1506849,8.71467026 33.9931507,4.87886945 Z M27.5,46.0969044 C18.4520548,46.0969044 11.1164384,38.8896366 11.1164384,30 C11.1164384,21.1103634 18.4520548,13.9030956 27.5,13.9030956 C36.5479452,13.9030956 43.8835616,21.1103634 43.8835616,30 C43.8835616,38.8896366 36.5410959,46.0969044 27.5,46.0969044 Z" id="形状"></path>
                    <path d="M27.5,36.6924389 C26.188946,36.6924389 25,37.8317226 25,39.3462194 C25,40.7379193 26.0732648,42 27.5,42 C28.9267352,42 30,40.8607163 30,39.3462194 C29.9935733,37.9545196 28.8046272,36.6924389 27.5,36.6924389 Z M27.5,34.5434906 C28.4511568,34.5434906 29.2866324,33.6566231 29.2866324,32.6469585 L30,20.6537806 C30,19.644116 30,18 27.5,18 C25.122108,18 25,19.644116 25,20.6537806 L25.7133676,32.6469585 C25.7133676,33.6634451 26.5488432,34.5434906 27.5,34.5434906 Z" id="形状"></path>
                </g>
            </g>
        </g>
    </g>
</svg>