<?xml version="1.0" encoding="UTF-8"?>
<svg width="90px" height="90px" viewBox="0 0 90 90" version="1.1" xmlns="http://www.w3.org/2000/svg" xmlns:xlink="http://www.w3.org/1999/xlink">
    <!-- Generator: Sketch 52.5 (67469) - http://www.bohemiancoding.com/sketch -->
    <title>学习</title>
    <desc>Created with Sketch.</desc>
    <g id="1.0-" stroke="none" stroke-width="1" fill="none" fill-rule="evenodd">
        <g id="切图" transform="translate(-421.000000, -56.000000)" fill="#EB544D" fill-rule="nonzero">
            <g id="分组-2" transform="translate(421.000000, 56.000000)">
                <g id="kaoshi-3" transform="translate(10.000000, 5.000000)">
                    <path d="M4.78894211,69.2525066 C4.53456578,68.872213 4.34513664,68.4430247 4.22065461,67.9703741 C4.09617258,67.4922909 4.03122539,67.0033421 4.03122539,66.4980951 L4.03122539,27.3169979 L23.9354961,11.8814558 C24.1844601,11.5283262 24.346828,11.2295241 24.4117752,10.8818272 C24.4713099,10.5341302 24.4442488,10.1864333 24.3143543,9.83873641 C24.1898723,9.49103945 24.0004431,9.21940125 23.7514791,9.02925453 L17.9711831,3.99308187 L54.5925784,3.99308187 C56.108012,3.99308187 57.4015426,4.53092555 58.4731705,5.60661289 C59.5447984,6.68230023 60.0806123,7.98073094 60.0806123,9.501905 L60.0806123,26.9638683 L64.058625,23.0685762 L64.058625,9.501905 C64.058625,6.90504359 63.1114791,4.65587914 61.2171874,2.75441156 C61.0277582,2.56426484 60.838329,2.39041633 60.6488998,2.23286617 C60.4594706,2.07531602 60.2700416,1.90146758 60.0806123,1.71132078 L59.3228957,1.33102727 C59.1334665,1.14088055 58.9115637,1.01592695 58.6625997,0.95073375 L57.9048829,0.570440234 C57.6505066,0.510679844 57.3853058,0.429188359 57.0984559,0.331398594 C56.8116059,0.239041641 56.5464052,0.173848437 56.2920288,0.141251875 C56.0376525,0.108655312 55.7724516,0.0760586719 55.4856018,0.0488948437 C55.2095763,0.0162982812 54.9064897,0 54.5925784,0 L12.8369759,0 L12.4581176,0 L12.2686884,0.0923570312 C12.052198,0.157550156 11.9385405,0.201012266 11.846532,0.233608906 C11.7491112,0.271638203 11.6679273,0.315100312 11.6083924,0.380293516 L11.1375256,0.95073375 C10.9751577,1.17347711 10.9480965,1.2984307 10.9480965,1.4233843 L0.248054141,28.0069589 C0.118159922,28.2622989 0.058625,28.5176388 0.058625,28.767546 L0.058625,66.4980951 C0.058625,69.0949564 0.989534063,71.3278225 2.85135227,73.1966936 C4.71317047,75.0655645 6.93761023,76 9.52467148,76 L20.0352846,76 L21.4532973,72.0123509 L9.52467148,72.0123509 C8.00923812,72.0123509 6.71570742,71.4745072 5.64407953,70.393387 C5.32475609,70.0130936 5.04331844,69.6328002 4.78894211,69.2525066 Z M14.7252916,32 L48.058625,32 L48.058625,36 L14.7252916,36 L14.7252916,32 Z M40.058625,41.3333334 L40.058625,45.3333334 L14.7252916,45.3333334 L14.7252916,41.3333334 L40.058625,41.3333334 Z M30.7252916,50.6666666 L30.7252916,54.6666666 L14.7252916,54.6666666 L14.7252916,50.6666666 L30.7252916,50.6666666 Z M14.7252916,22.6666666 L53.3919584,22.6666666 L53.3919584,26.6666666 L14.7252916,26.6666666 L14.7252916,22.6666666 Z M33.9745414,59.0780612 L58.8922339,34.6588043 C59.3218478,34.2414415 59.826177,33.9158066 60.4098914,33.6819002 C60.9936057,33.4479934 61.5819898,33.3333334 62.1657042,33.3333334 C62.7494184,33.3333334 63.3284631,33.4525798 63.8981684,33.6864866 C64.4678737,33.9249795 64.9768726,34.2506143 65.4298348,34.667977 L69.3710743,38.5480753 C70.2723293,39.4378379 70.7252916,40.515643 70.7252916,41.7814905 C70.7252916,43.0473383 70.2676597,44.1251434 69.3664046,45.0103195 L44.384765,69.4882848 L33.9745414,59.0780612 Z M31.1080163,61.8872466 L27.0821357,65.8325963 L23.3230152,78.1562653 L22.7252916,80 L37.7524343,75.986896 L41.5180105,72.2972407 L31.1080163,61.8872466 Z M59.492328,70.2531976 C58.3604222,71.3557817 56.9941318,71.9070738 55.3934569,71.9070738 L46.1324203,71.9070738 L44.058625,76 L55.3934569,76 C58.1260377,76 60.4755997,75.0421996 62.4421431,73.1265988 C64.4086866,71.210998 65.3919584,68.9223005 65.3919584,66.2605064 L65.3919584,54.6666666 L61.1901867,58.6593579 L61.1901867,66.2605064 C61.1901867,67.8197164 60.6242338,69.1506134 59.492328,70.2531976 Z" id="形状"></path>
                </g>
            </g>
        </g>
    </g>
</svg>