<?xml version="1.0" encoding="UTF-8"?>
<svg width="90px" height="90px" viewBox="0 0 90 90" version="1.1" xmlns="http://www.w3.org/2000/svg" xmlns:xlink="http://www.w3.org/1999/xlink">
    <!-- Generator: Sketch 52.5 (67469) - http://www.bohemiancoding.com/sketch -->
    <title>kaoshi-</title>
    <desc>Created with Sketch.</desc>
    <g id="1.0-" stroke="none" stroke-width="1" fill="none" fill-rule="evenodd">
        <g id="切图" transform="translate(-598.000000, -53.000000)" fill="#008DE2" fill-rule="nonzero">
            <g id="分组-3" transform="translate(598.000000, 53.000000)">
                <g id="kaoshi-2" transform="translate(5.000000, 7.000000)">
                    <path d="M24.1025351,14.9417929 C24.1025351,16.6118657 22.7486736,17.9657272 21.0786008,17.9657272 C19.408528,17.9657272 18.0546665,16.6118657 18.0546665,14.9417929 C18.0546665,13.2717201 19.408528,11.9178586 21.0786008,11.9178586 C22.7486736,11.9178586 24.1025351,13.2717201 24.1025351,14.9417929 Z M24.1025351,26.0147288 C24.1205804,27.2416816 23.3953739,28.3578925 22.266956,28.8399837 C21.1385381,29.322075 19.8306643,29.0744522 18.9565805,28.2132225 C18.0824967,27.3519929 17.8155261,26.0479309 18.2808481,24.9124951 C18.74617,23.7770593 19.8515152,23.0353968 21.0786007,23.0352641 C21.8764806,23.0233541 22.6457936,23.3319954 23.2142068,23.8920495 C23.7826199,24.4521036 24.1026239,25.2167601 24.1025351,26.0147288 Z M18.0546665,37.1321342 C18.0546665,38.802207 19.408528,40.1560685 21.0786008,40.1560685 C22.7486736,40.1560685 24.1025351,38.802207 24.1025351,37.1321342 C24.1025351,35.4620614 22.7486736,34.1081999 21.0786008,34.1081999 C19.408528,34.1081999 18.0546665,35.4620614 18.0546665,37.1321342 Z M51.4513524,17.7878488 L31.1287353,17.7878488 C29.6060218,17.7878488 28.3716187,16.5534456 28.3716187,15.0307322 C28.3471545,14.288227 28.628284,13.5681797 29.1493802,13.0386788 C29.6704764,12.5091778 30.3859337,12.2165642 31.1287353,12.229146 L51.4068828,12.229146 C52.1263215,12.229146 52.8162939,12.5149419 53.3250139,13.0236619 C53.8337338,13.5323819 54.1195297,14.2223542 54.1195297,14.9417929 C54.1557864,15.6763955 53.8921941,16.3942328 53.3891576,16.9308051 C52.8861211,17.4673774 52.1867645,17.7766856 51.4513524,17.7878488 Z M51.4513524,28.7718453 L31.1287353,28.7718453 C30.0683893,28.9073302 29.0252866,28.4176905 28.4520779,27.5154037 C27.8788692,26.6131169 27.8788692,25.4608103 28.4520779,24.5585235 C29.0252866,23.6562367 30.0683893,23.1665969 31.1287353,23.3020818 L51.4068828,23.3020818 C52.7833027,23.4779528 53.814552,24.6493534 53.814552,26.0369636 C53.814552,27.4245738 52.7833027,28.5959744 51.4068828,28.7718453 L51.4513524,28.7718453 Z M51.4513524,40.0226596 L31.1287353,40.0226596 C30.4016227,40.0345811 29.7001708,39.7540568 29.181792,39.2440389 C28.6634132,38.7340211 28.371521,38.037223 28.3716187,37.3100127 C28.3223833,36.5484792 28.5909798,35.8005993 29.1134718,35.2443982 C29.6359637,34.6881971 30.3656134,34.3734277 31.1287353,34.3750176 L51.4068828,34.3750176 C52.1340931,34.3749199 52.8308912,34.6668122 53.340909,35.185191 C53.8509269,35.7035697 54.1314512,36.4050217 54.1195297,37.1321342 C54.1683702,37.8741976 53.9104174,38.6037715 53.4060015,39.150222 C52.9015857,39.6966725 52.194946,40.0120739 51.4513524,40.0226596 Z M18.0546665,47.5380257 C18.0546665,49.2080985 19.408528,50.56196 21.0786008,50.56196 C22.7486736,50.56196 24.1025351,49.2080985 24.1025351,47.5380257 C24.1025351,45.8679529 22.7486736,44.5140914 21.0786008,44.5140914 C19.408528,44.5140914 18.0546665,45.8679529 18.0546665,47.5380257 Z M51.4513524,50.2506727 L31.1287353,50.2506727 C30.4016227,50.2625942 29.7001708,49.9820698 29.181792,49.472052 C28.6634132,48.9620341 28.371521,48.265236 28.3716187,47.5380257 C28.3716187,46.0153123 29.6060218,44.7809092 31.1287353,44.7809092 L51.4068828,44.7809092 C52.1340931,44.7808114 52.8308912,45.0727037 53.340909,45.5910825 C53.8509269,46.1094613 54.1314512,46.8109132 54.1195297,47.5380257 C54.1197288,49.0189832 52.9321109,50.2263947 51.4513524,50.2506727 Z" id="形状"></path>
                    <path d="M80.0453192,13.3408865 C80.0453192,3.46863048 76.3988102,0 71.9073785,0 L16.5426993,0 C11.9008793,-2.84229498e-16 8.13794076,3.76293857 8.13794076,8.40475853 L8.13794076,61.14573 L0,61.14573 C0,73.4638152 4.44696217,75.2870698 10.1390738,75.2870697 L58.6999008,75.2870697 C60.9248822,75.2989049 63.0627966,74.4233188 64.640286,72.8541759 C66.2177754,71.285033 67.1046908,69.1517937 67.1046593,66.9267808 L67.1046593,13.3408865 L80.0453192,13.3408865 Z M63.7694377,66.7044327 C63.7450293,69.4868786 61.4824538,71.729607 58.6999008,71.7295 C54.2529386,71.7295 51.9405183,70.7511683 51.9405183,60.9233819 L11.5176321,60.9233819 L11.5176321,8.40475853 C11.517525,5.62220555 13.7602534,3.35963001 16.5426993,3.33522163 L65.9484491,3.33522163 C64.3447372,6.41713681 63.5925212,9.87119004 63.7694377,13.3408865 L63.7694377,66.9267808 L63.7694377,66.7044327 Z" id="形状"></path>
                </g>
            </g>
        </g>
    </g>
</svg>