<?xml version="1.0" encoding="UTF-8"?>
<svg width="90px" height="90px" viewBox="0 0 90 90" version="1.1" xmlns="http://www.w3.org/2000/svg" xmlns:xlink="http://www.w3.org/1999/xlink">
    <!-- Generator: Sketch 52.5 (67469) - http://www.bohemiancoding.com/sketch -->
    <title>考试</title>
    <desc>Created with Sketch.</desc>
    <g id="1.0-" stroke="none" stroke-width="1" fill="none" fill-rule="evenodd">
        <g id="切图" transform="translate(-71.000000, -56.000000)" fill="#6ACA6A" fill-rule="nonzero">
            <g id="peixun" transform="translate(71.000000, 56.000000)">
                <path d="M87.2738226,14.3975904 L84.592552,14.3975904 C83.736035,14.3975904 83.736035,14.7327492 83.736035,15.2541073 L83.736035,69.2519168 C83.736035,70.9649507 82.3581599,70.9649507 81.6133625,70.9649507 C52.4545455,70.5180723 45.4162103,79.9769989 45.4162103,79.9769989 C45.4162103,79.9769989 38.3778751,70.5180723 9.21905805,70.9649507 C8.47426068,70.9649507 7.09638554,70.9649507 7.09638554,69.2519168 L7.09638554,15.2541073 C7.09638554,14.7327492 6.98466594,14.3975904 6.23986857,14.3975904 L3.89375685,14.3975904 C3.26067908,14.3975904 3.03723987,14.6210296 3.03723987,15.3658269 L3.03723987,74.4282585 C3.03723987,75.1730559 3.37239869,75.5082147 4.00547645,75.5082147 C9.25629792,75.1730559 33.2760131,75.0613363 40.9474261,83.5520263 L49.9222344,83.5520263 C59.8652793,74.0930997 81.762322,75.1730559 86.9759036,75.5082147 C87.6089814,75.5082147 87.9441402,75.1730559 87.9441402,74.4282585 L87.9441402,15.3658269 C87.9069003,14.7327492 87.9069003,14.3975904 87.2738226,14.3975904 Z M14.0974808,66.905805 C16.7787514,66.905805 28.8444688,66.6823658 45.3789704,76.0295728 C61.9134721,66.6823658 74.0164294,66.905805 76.66046,66.905805 C79.3417306,66.905805 79.5279299,65.1927711 79.5279299,65.1927711 L79.5279299,8.06681271 C79.5279299,5.60898138 78.3362541,6.13033954 78.3362541,6.13033954 C53.7579409,6.6516977 45.3417306,18.6801752 45.3417306,18.6801752 C45.3417306,18.6801752 36.8882804,6.53997809 12.347207,6.13033954 C12.347207,6.13033954 11.1555312,5.60898138 11.1555312,8.06681271 L11.1555312,65.1927711 C11.230011,65.1927711 11.4162103,66.905805 14.0974808,66.905805 Z M43.4797371,22.6648412 L47.5388828,22.6648412 L47.5388828,71.3001095 L43.4797371,71.3001095 L43.4797371,22.6648412 Z" id="形状"></path>
            </g>
        </g>
    </g>
</svg>